solid OpenSCAD_Model
  facet normal 0 1 0
    outer loop
      vertex -12.95 3 9.59999
      vertex -15.05 3 2.09999
      vertex -15.05 3 9.59999
    endloop
  endfacet
  facet normal 0 1 0
    outer loop
      vertex -15.05 3 2.09999
      vertex -12.95 3 0
      vertex -27.9 3 2.09999
    endloop
  endfacet
  facet normal 0 1 -0
    outer loop
      vertex -12.95 3 0
      vertex -15.05 3 2.09999
      vertex -12.95 3 9.59999
    endloop
  endfacet
  facet normal 0 1 0
    outer loop
      vertex 26.6 3 136.5
      vertex 24.5 3 134.4
      vertex -26.6 3 136.5
    endloop
  endfacet
  facet normal 0 1 -0
    outer loop
      vertex 26.6 3 129
      vertex 24.5 3 134.4
      vertex 26.6 3 136.5
    endloop
  endfacet
  facet normal 0 1 0
    outer loop
      vertex 26.6 3 129
      vertex 24.5 3 126.9
      vertex 24.5 3 134.4
    endloop
  endfacet
  facet normal 0 1 -0
    outer loop
      vertex 36.6 3 121.8
      vertex 26.6 3 129
      vertex 38.7 3 123.9
    endloop
  endfacet
  facet normal 0 1 0
    outer loop
      vertex 26.6 3 129
      vertex 36.6 3 121.8
      vertex 24.5 3 126.9
    endloop
  endfacet
  facet normal 0 1 0
    outer loop
      vertex 30 3 0
      vertex 36.6 3 121.8
      vertex 38.7 3 123.9
    endloop
  endfacet
  facet normal 0 1 0
    outer loop
      vertex 27.9 3 2.09999
      vertex 30 3 0
      vertex 15.05 3 2.09999
    endloop
  endfacet
  facet normal 0 1 0
    outer loop
      vertex 36.6 3 121.8
      vertex 30 3 0
      vertex 27.9 3 2.09999
    endloop
  endfacet
  facet normal 0 1 -0
    outer loop
      vertex -24.5 3 134.4
      vertex -26.6 3 136.5
      vertex 24.5 3 134.4
    endloop
  endfacet
  facet normal 0 1 0
    outer loop
      vertex -24.5 3 134.4
      vertex -26.6 3 129
      vertex -26.6 3 136.5
    endloop
  endfacet
  facet normal 0 1 -0
    outer loop
      vertex -24.5 3 126.9
      vertex -26.6 3 129
      vertex -24.5 3 134.4
    endloop
  endfacet
  facet normal 0 1 0
    outer loop
      vertex -36.6 3 121.8
      vertex -26.6 3 129
      vertex -24.5 3 126.9
    endloop
  endfacet
  facet normal 0 1 0
    outer loop
      vertex -26.6 3 129
      vertex -36.6 3 121.8
      vertex -38.7 3 123.9
    endloop
  endfacet
  facet normal 0 1 -0
    outer loop
      vertex -30 3 0
      vertex -36.6 3 121.8
      vertex -27.9 3 2.09999
    endloop
  endfacet
  facet normal 0 1 0
    outer loop
      vertex -36.6 3 121.8
      vertex -30 3 0
      vertex -38.7 3 123.9
    endloop
  endfacet
  facet normal 0 1 0
    outer loop
      vertex -30 3 0
      vertex -27.9 3 2.09999
      vertex -12.95 3 0
    endloop
  endfacet
  facet normal 0 1 -0
    outer loop
      vertex 15.05 3 2.09999
      vertex 12.95 3 9.59999
      vertex 15.05 3 9.59999
    endloop
  endfacet
  facet normal 0 1 0
    outer loop
      vertex 15.05 3 2.09999
      vertex 12.95 3 0
      vertex 12.95 3 9.59999
    endloop
  endfacet
  facet normal 0 1 0
    outer loop
      vertex 12.95 3 0
      vertex 15.05 3 2.09999
      vertex 30 3 0
    endloop
  endfacet
  facet normal 0 -1 0
    outer loop
      vertex 12.95 -3 9.59999
      vertex 15.05 -3 2.09999
      vertex 15.05 -3 9.59999
    endloop
  endfacet
  facet normal 0 -1 -0
    outer loop
      vertex 15.05 -3 2.09999
      vertex 12.95 -3 0
      vertex 27.9 -3 2.09999
    endloop
  endfacet
  facet normal 0 -1 0
    outer loop
      vertex 12.95 -3 0
      vertex 15.05 -3 2.09999
      vertex 12.95 -3 9.59999
    endloop
  endfacet
  facet normal 0 -1 0
    outer loop
      vertex -26.6 -3 136.5
      vertex -24.5 -3 134.4
      vertex 26.6 -3 136.5
    endloop
  endfacet
  facet normal 0 -1 0
    outer loop
      vertex -26.6 -3 129
      vertex -24.5 -3 134.4
      vertex -26.6 -3 136.5
    endloop
  endfacet
  facet normal 0 -1 0
    outer loop
      vertex -26.6 -3 129
      vertex -24.5 -3 126.9
      vertex -24.5 -3 134.4
    endloop
  endfacet
  facet normal 0 -1 0
    outer loop
      vertex -36.6 -3 121.8
      vertex -26.6 -3 129
      vertex -38.7 -3 123.9
    endloop
  endfacet
  facet normal 0 -1 -0
    outer loop
      vertex -26.6 -3 129
      vertex -36.6 -3 121.8
      vertex -24.5 -3 126.9
    endloop
  endfacet
  facet normal 0 -1 0
    outer loop
      vertex -30 -3 0
      vertex -36.6 -3 121.8
      vertex -38.7 -3 123.9
    endloop
  endfacet
  facet normal 0 -1 -0
    outer loop
      vertex -27.9 -3 2.09999
      vertex -30 -3 0
      vertex -15.05 -3 2.09999
    endloop
  endfacet
  facet normal 0 -1 0
    outer loop
      vertex -36.6 -3 121.8
      vertex -30 -3 0
      vertex -27.9 -3 2.09999
    endloop
  endfacet
  facet normal 0 -1 0
    outer loop
      vertex 24.5 -3 134.4
      vertex 26.6 -3 136.5
      vertex -24.5 -3 134.4
    endloop
  endfacet
  facet normal 0 -1 0
    outer loop
      vertex 24.5 -3 134.4
      vertex 26.6 -3 129
      vertex 26.6 -3 136.5
    endloop
  endfacet
  facet normal 0 -1 0
    outer loop
      vertex 24.5 -3 126.9
      vertex 26.6 -3 129
      vertex 24.5 -3 134.4
    endloop
  endfacet
  facet normal 0 -1 0
    outer loop
      vertex 36.6 -3 121.8
      vertex 26.6 -3 129
      vertex 24.5 -3 126.9
    endloop
  endfacet
  facet normal 0 -1 0
    outer loop
      vertex 26.6 -3 129
      vertex 36.6 -3 121.8
      vertex 38.7 -3 123.9
    endloop
  endfacet
  facet normal 0 -1 0
    outer loop
      vertex 30 -3 0
      vertex 36.6 -3 121.8
      vertex 27.9 -3 2.09999
    endloop
  endfacet
  facet normal 0 -1 -0
    outer loop
      vertex 36.6 -3 121.8
      vertex 30 -3 0
      vertex 38.7 -3 123.9
    endloop
  endfacet
  facet normal 0 -1 0
    outer loop
      vertex 30 -3 0
      vertex 27.9 -3 2.09999
      vertex 12.95 -3 0
    endloop
  endfacet
  facet normal 0 -1 0
    outer loop
      vertex -15.05 -3 2.09999
      vertex -12.95 -3 9.59999
      vertex -15.05 -3 9.59999
    endloop
  endfacet
  facet normal 0 -1 0
    outer loop
      vertex -15.05 -3 2.09999
      vertex -12.95 -3 0
      vertex -12.95 -3 9.59999
    endloop
  endfacet
  facet normal 0 -1 0
    outer loop
      vertex -12.95 -3 0
      vertex -15.05 -3 2.09999
      vertex -30 -3 0
    endloop
  endfacet
  facet normal 0.388397 0 0.921492
    outer loop
      vertex 26.6 3 129
      vertex 38.7 -3 123.9
      vertex 38.7 3 123.9
    endloop
  endfacet
  facet normal 0.388397 0 0.921492
    outer loop
      vertex 38.7 -3 123.9
      vertex 26.6 3 129
      vertex 26.6 -3 129
    endloop
  endfacet
  facet normal 1 -0 0
    outer loop
      vertex 26.6 -3 136.5
      vertex 26.6 3 129
      vertex 26.6 3 136.5
    endloop
  endfacet
  facet normal 1 0 0
    outer loop
      vertex 26.6 3 129
      vertex 26.6 -3 136.5
      vertex 26.6 -3 129
    endloop
  endfacet
  facet normal -0 0 1
    outer loop
      vertex -26.6 3 136.5
      vertex 26.6 -3 136.5
      vertex 26.6 3 136.5
    endloop
  endfacet
  facet normal 0 0 1
    outer loop
      vertex 26.6 -3 136.5
      vertex -26.6 3 136.5
      vertex -26.6 -3 136.5
    endloop
  endfacet
  facet normal 0 0 -1
    outer loop
      vertex -24.5 -3 134.4
      vertex 24.5 3 134.4
      vertex 24.5 -3 134.4
    endloop
  endfacet
  facet normal -0 0 -1
    outer loop
      vertex 24.5 3 134.4
      vertex -24.5 -3 134.4
      vertex -24.5 3 134.4
    endloop
  endfacet
  facet normal -1 0 0
    outer loop
      vertex 24.5 -3 126.9
      vertex 24.5 3 134.4
      vertex 24.5 3 126.9
    endloop
  endfacet
  facet normal -1 -0 0
    outer loop
      vertex 24.5 3 134.4
      vertex 24.5 -3 126.9
      vertex 24.5 -3 134.4
    endloop
  endfacet
  facet normal -0.388397 0 -0.921492
    outer loop
      vertex 24.5 -3 126.9
      vertex 36.6 3 121.8
      vertex 36.6 -3 121.8
    endloop
  endfacet
  facet normal -0.388397 0 -0.921492
    outer loop
      vertex 36.6 3 121.8
      vertex 24.5 -3 126.9
      vertex 24.5 3 126.9
    endloop
  endfacet
  facet normal -0.997369 0 0.0724905
    outer loop
      vertex 27.9 -3 2.09999
      vertex 36.6 3 121.8
      vertex 27.9 3 2.09999
    endloop
  endfacet
  facet normal -0.997369 0 0.0724905
    outer loop
      vertex 36.6 3 121.8
      vertex 27.9 -3 2.09999
      vertex 36.6 -3 121.8
    endloop
  endfacet
  facet normal -0 0 1
    outer loop
      vertex 15.05 3 2.09999
      vertex 27.9 -3 2.09999
      vertex 27.9 3 2.09999
    endloop
  endfacet
  facet normal 0 0 1
    outer loop
      vertex 27.9 -3 2.09999
      vertex 15.05 3 2.09999
      vertex 15.05 -3 2.09999
    endloop
  endfacet
  facet normal 1 -0 0
    outer loop
      vertex 15.05 -3 9.59999
      vertex 15.05 3 2.09999
      vertex 15.05 3 9.59999
    endloop
  endfacet
  facet normal 1 0 0
    outer loop
      vertex 15.05 3 2.09999
      vertex 15.05 -3 9.59999
      vertex 15.05 -3 2.09999
    endloop
  endfacet
  facet normal -0 0 1
    outer loop
      vertex 12.95 3 9.59999
      vertex 15.05 -3 9.59999
      vertex 15.05 3 9.59999
    endloop
  endfacet
  facet normal 0 0 1
    outer loop
      vertex 15.05 -3 9.59999
      vertex 12.95 3 9.59999
      vertex 12.95 -3 9.59999
    endloop
  endfacet
  facet normal -1 0 0
    outer loop
      vertex 12.95 -3 0
      vertex 12.95 3 9.59999
      vertex 12.95 3 0
    endloop
  endfacet
  facet normal -1 -0 0
    outer loop
      vertex 12.95 3 9.59999
      vertex 12.95 -3 0
      vertex 12.95 -3 9.59999
    endloop
  endfacet
  facet normal 0 0 -1
    outer loop
      vertex 12.95 -3 0
      vertex 30 3 0
      vertex 30 -3 0
    endloop
  endfacet
  facet normal -0 0 -1
    outer loop
      vertex 30 3 0
      vertex 12.95 -3 0
      vertex 12.95 3 0
    endloop
  endfacet
  facet normal 0.997544 0 -0.0700454
    outer loop
      vertex 38.7 -3 123.9
      vertex 30 3 0
      vertex 38.7 3 123.9
    endloop
  endfacet
  facet normal 0.997544 0 -0.0700454
    outer loop
      vertex 30 3 0
      vertex 38.7 -3 123.9
      vertex 30 -3 0
    endloop
  endfacet
  facet normal -0.388397 0 0.921492
    outer loop
      vertex -38.7 3 123.9
      vertex -26.6 -3 129
      vertex -26.6 3 129
    endloop
  endfacet
  facet normal -0.388397 0 0.921492
    outer loop
      vertex -26.6 -3 129
      vertex -38.7 3 123.9
      vertex -38.7 -3 123.9
    endloop
  endfacet
  facet normal -1 0 0
    outer loop
      vertex -26.6 -3 129
      vertex -26.6 3 136.5
      vertex -26.6 3 129
    endloop
  endfacet
  facet normal -1 -0 0
    outer loop
      vertex -26.6 3 136.5
      vertex -26.6 -3 129
      vertex -26.6 -3 136.5
    endloop
  endfacet
  facet normal 1 -0 0
    outer loop
      vertex -24.5 -3 134.4
      vertex -24.5 3 126.9
      vertex -24.5 3 134.4
    endloop
  endfacet
  facet normal 1 0 0
    outer loop
      vertex -24.5 3 126.9
      vertex -24.5 -3 134.4
      vertex -24.5 -3 126.9
    endloop
  endfacet
  facet normal 0.388397 0 -0.921492
    outer loop
      vertex -36.6 -3 121.8
      vertex -24.5 3 126.9
      vertex -24.5 -3 126.9
    endloop
  endfacet
  facet normal 0.388397 0 -0.921492
    outer loop
      vertex -24.5 3 126.9
      vertex -36.6 -3 121.8
      vertex -36.6 3 121.8
    endloop
  endfacet
  facet normal 0.997369 -0 0.0724905
    outer loop
      vertex -36.6 -3 121.8
      vertex -27.9 3 2.09999
      vertex -36.6 3 121.8
    endloop
  endfacet
  facet normal 0.997369 0 0.0724905
    outer loop
      vertex -27.9 3 2.09999
      vertex -36.6 -3 121.8
      vertex -27.9 -3 2.09999
    endloop
  endfacet
  facet normal -0 0 1
    outer loop
      vertex -27.9 3 2.09999
      vertex -15.05 -3 2.09999
      vertex -15.05 3 2.09999
    endloop
  endfacet
  facet normal 0 0 1
    outer loop
      vertex -15.05 -3 2.09999
      vertex -27.9 3 2.09999
      vertex -27.9 -3 2.09999
    endloop
  endfacet
  facet normal -1 0 0
    outer loop
      vertex -15.05 -3 2.09999
      vertex -15.05 3 9.59999
      vertex -15.05 3 2.09999
    endloop
  endfacet
  facet normal -1 -0 0
    outer loop
      vertex -15.05 3 9.59999
      vertex -15.05 -3 2.09999
      vertex -15.05 -3 9.59999
    endloop
  endfacet
  facet normal -0 0 1
    outer loop
      vertex -15.05 3 9.59999
      vertex -12.95 -3 9.59999
      vertex -12.95 3 9.59999
    endloop
  endfacet
  facet normal 0 0 1
    outer loop
      vertex -12.95 -3 9.59999
      vertex -15.05 3 9.59999
      vertex -15.05 -3 9.59999
    endloop
  endfacet
  facet normal 1 -0 0
    outer loop
      vertex -12.95 -3 9.59999
      vertex -12.95 3 0
      vertex -12.95 3 9.59999
    endloop
  endfacet
  facet normal 1 0 0
    outer loop
      vertex -12.95 3 0
      vertex -12.95 -3 9.59999
      vertex -12.95 -3 0
    endloop
  endfacet
  facet normal 0 0 -1
    outer loop
      vertex -30 -3 0
      vertex -12.95 3 0
      vertex -12.95 -3 0
    endloop
  endfacet
  facet normal -0 0 -1
    outer loop
      vertex -12.95 3 0
      vertex -30 -3 0
      vertex -30 3 0
    endloop
  endfacet
  facet normal -0.997544 0 -0.0700454
    outer loop
      vertex -30 -3 0
      vertex -38.7 3 123.9
      vertex -30 3 0
    endloop
  endfacet
  facet normal -0.997544 -0 -0.0700454
    outer loop
      vertex -38.7 3 123.9
      vertex -30 -3 0
      vertex -38.7 -3 123.9
    endloop
  endfacet
  facet normal 1 0 0
    outer loop
      vertex 16.55 15.05 31.6
      vertex 16.55 3 19.6
      vertex 16.55 15.05 17.5
    endloop
  endfacet
  facet normal 1 0 0
    outer loop
      vertex 16.55 15.05 31.6
      vertex 16.55 -3 19.6
      vertex 16.55 3 19.6
    endloop
  endfacet
  facet normal 1 -0 0
    outer loop
      vertex 16.55 -15.05 31.6
      vertex 16.55 -3 19.6
      vertex 16.55 15.05 31.6
    endloop
  endfacet
  facet normal 1 0 0
    outer loop
      vertex 16.55 -15.05 17.5
      vertex 16.55 -3 19.6
      vertex 16.55 -15.05 31.6
    endloop
  endfacet
  facet normal 1 0 0
    outer loop
      vertex 16.55 -3 19.6
      vertex 16.55 -15.05 17.5
      vertex 16.55 -3 17.5
    endloop
  endfacet
  facet normal 1 0 0
    outer loop
      vertex 16.55 15.05 17.5
      vertex 16.55 3 19.6
      vertex 16.55 3 17.5
    endloop
  endfacet
  facet normal 0 0 1
    outer loop
      vertex 16.55 15.05 31.6
      vertex 12.95 0 31.6
      vertex 16.55 -15.05 31.6
    endloop
  endfacet
  facet normal 0 0 1
    outer loop
      vertex 16.55 15.05 31.6
      vertex 12.9185 0.903346 31.6
      vertex 12.95 0 31.6
    endloop
  endfacet
  facet normal 0 0 1
    outer loop
      vertex 16.55 15.05 31.6
      vertex 12.824 1.80229 31.6
      vertex 12.9185 0.903346 31.6
    endloop
  endfacet
  facet normal 0 0 1
    outer loop
      vertex 16.55 15.05 31.6
      vertex 12.667 2.69246 31.6
      vertex 12.824 1.80229 31.6
    endloop
  endfacet
  facet normal 0 0 1
    outer loop
      vertex 16.55 15.05 31.6
      vertex 12.4483 3.5695 31.6
      vertex 12.667 2.69246 31.6
    endloop
  endfacet
  facet normal 0 0 1
    outer loop
      vertex 16.55 15.05 31.6
      vertex 12.169 4.42916 31.6
      vertex 12.4483 3.5695 31.6
    endloop
  endfacet
  facet normal 0 0 1
    outer loop
      vertex 16.55 15.05 31.6
      vertex 11.8304 5.26724 31.6
      vertex 12.169 4.42916 31.6
    endloop
  endfacet
  facet normal 0 0 1
    outer loop
      vertex 16.55 15.05 31.6
      vertex 11.4342 6.07966 31.6
      vertex 11.8304 5.26724 31.6
    endloop
  endfacet
  facet normal 0 0 1
    outer loop
      vertex 16.55 15.05 31.6
      vertex 10.9822 6.86245 31.6
      vertex 11.4342 6.07966 31.6
    endloop
  endfacet
  facet normal 0 0 1
    outer loop
      vertex 16.55 15.05 31.6
      vertex 10.4768 7.61182 31.6
      vertex 10.9822 6.86245 31.6
    endloop
  endfacet
  facet normal 0 0 1
    outer loop
      vertex 16.55 15.05 31.6
      vertex 9.92027 8.3241 31.6
      vertex 10.4768 7.61182 31.6
    endloop
  endfacet
  facet normal 0 0 1
    outer loop
      vertex 16.55 15.05 31.6
      vertex 9.31545 8.99583 31.6
      vertex 9.92027 8.3241 31.6
    endloop
  endfacet
  facet normal 0 0 1
    outer loop
      vertex 16.55 15.05 31.6
      vertex 8.66524 9.62372 31.6
      vertex 9.31545 8.99583 31.6
    endloop
  endfacet
  facet normal 0 0 1
    outer loop
      vertex 16.55 15.05 31.6
      vertex 7.97282 10.2047 31.6
      vertex 8.66524 9.62372 31.6
    endloop
  endfacet
  facet normal 0 0 1
    outer loop
      vertex 16.55 15.05 31.6
      vertex 7.24155 10.736 31.6
      vertex 7.97282 10.2047 31.6
    endloop
  endfacet
  facet normal 0 0 1
    outer loop
      vertex 16.55 15.05 31.6
      vertex 6.475 11.215 31.6
      vertex 7.24155 10.736 31.6
    endloop
  endfacet
  facet normal 0 0 1
    outer loop
      vertex 16.55 15.05 31.6
      vertex 5.67691 11.6394 31.6
      vertex 6.475 11.215 31.6
    endloop
  endfacet
  facet normal 0 0 1
    outer loop
      vertex 16.55 15.05 31.6
      vertex 4.85116 12.007 31.6
      vertex 5.67691 11.6394 31.6
    endloop
  endfacet
  facet normal 0 0 1
    outer loop
      vertex 16.55 15.05 31.6
      vertex 4.00177 12.3162 31.6
      vertex 4.85116 12.007 31.6
    endloop
  endfacet
  facet normal 0 0 1
    outer loop
      vertex 16.55 15.05 31.6
      vertex 3.13289 12.5653 31.6
      vertex 4.00177 12.3162 31.6
    endloop
  endfacet
  facet normal 0 0 1
    outer loop
      vertex 16.55 15.05 31.6
      vertex 2.24874 12.7533 31.6
      vertex 3.13289 12.5653 31.6
    endloop
  endfacet
  facet normal 0 0 1
    outer loop
      vertex 16.55 15.05 31.6
      vertex 1.35364 12.8791 31.6
      vertex 2.24874 12.7533 31.6
    endloop
  endfacet
  facet normal 0 0 1
    outer loop
      vertex 16.55 15.05 31.6
      vertex 0.451948 12.9421 31.6
      vertex 1.35364 12.8791 31.6
    endloop
  endfacet
  facet normal 0 0 1
    outer loop
      vertex 16.55 15.05 31.6
      vertex -0.451948 12.9421 31.6
      vertex 0.451948 12.9421 31.6
    endloop
  endfacet
  facet normal -0 0 1
    outer loop
      vertex -16.55 15.05 31.6
      vertex -0.451948 12.9421 31.6
      vertex 16.55 15.05 31.6
    endloop
  endfacet
  facet normal 0 0 1
    outer loop
      vertex -12.9185 0.903346 31.6
      vertex -16.55 15.05 31.6
      vertex -12.95 0 31.6
    endloop
  endfacet
  facet normal 0 0 1
    outer loop
      vertex -12.824 1.80229 31.6
      vertex -16.55 15.05 31.6
      vertex -12.9185 0.903346 31.6
    endloop
  endfacet
  facet normal 0 0 1
    outer loop
      vertex -12.667 2.69246 31.6
      vertex -16.55 15.05 31.6
      vertex -12.824 1.80229 31.6
    endloop
  endfacet
  facet normal 0 0 1
    outer loop
      vertex -12.4483 3.5695 31.6
      vertex -16.55 15.05 31.6
      vertex -12.667 2.69246 31.6
    endloop
  endfacet
  facet normal 0 0 1
    outer loop
      vertex -12.169 4.42916 31.6
      vertex -16.55 15.05 31.6
      vertex -12.4483 3.5695 31.6
    endloop
  endfacet
  facet normal 0 0 1
    outer loop
      vertex -11.8304 5.26724 31.6
      vertex -16.55 15.05 31.6
      vertex -12.169 4.42916 31.6
    endloop
  endfacet
  facet normal 0 0 1
    outer loop
      vertex -11.4342 6.07966 31.6
      vertex -16.55 15.05 31.6
      vertex -11.8304 5.26724 31.6
    endloop
  endfacet
  facet normal 0 0 1
    outer loop
      vertex -10.9822 6.86245 31.6
      vertex -16.55 15.05 31.6
      vertex -11.4342 6.07966 31.6
    endloop
  endfacet
  facet normal 0 0 1
    outer loop
      vertex -10.4768 7.61182 31.6
      vertex -16.55 15.05 31.6
      vertex -10.9822 6.86245 31.6
    endloop
  endfacet
  facet normal 0 0 1
    outer loop
      vertex -9.92027 8.3241 31.6
      vertex -16.55 15.05 31.6
      vertex -10.4768 7.61182 31.6
    endloop
  endfacet
  facet normal 0 0 1
    outer loop
      vertex -9.31545 8.99583 31.6
      vertex -16.55 15.05 31.6
      vertex -9.92027 8.3241 31.6
    endloop
  endfacet
  facet normal 0 0 1
    outer loop
      vertex -8.66524 9.62372 31.6
      vertex -16.55 15.05 31.6
      vertex -9.31545 8.99583 31.6
    endloop
  endfacet
  facet normal 0 0 1
    outer loop
      vertex -7.97282 10.2047 31.6
      vertex -16.55 15.05 31.6
      vertex -8.66524 9.62372 31.6
    endloop
  endfacet
  facet normal 0 0 1
    outer loop
      vertex -7.24155 10.736 31.6
      vertex -16.55 15.05 31.6
      vertex -7.97282 10.2047 31.6
    endloop
  endfacet
  facet normal 0 0 1
    outer loop
      vertex -6.475 11.215 31.6
      vertex -16.55 15.05 31.6
      vertex -7.24155 10.736 31.6
    endloop
  endfacet
  facet normal 0 0 1
    outer loop
      vertex -5.67691 11.6394 31.6
      vertex -16.55 15.05 31.6
      vertex -6.475 11.215 31.6
    endloop
  endfacet
  facet normal 0 0 1
    outer loop
      vertex -4.85116 12.007 31.6
      vertex -16.55 15.05 31.6
      vertex -5.67691 11.6394 31.6
    endloop
  endfacet
  facet normal 0 0 1
    outer loop
      vertex -4.00177 12.3162 31.6
      vertex -16.55 15.05 31.6
      vertex -4.85116 12.007 31.6
    endloop
  endfacet
  facet normal 0 0 1
    outer loop
      vertex -3.13289 12.5653 31.6
      vertex -16.55 15.05 31.6
      vertex -4.00177 12.3162 31.6
    endloop
  endfacet
  facet normal 0 0 1
    outer loop
      vertex -2.24874 12.7533 31.6
      vertex -16.55 15.05 31.6
      vertex -3.13289 12.5653 31.6
    endloop
  endfacet
  facet normal 0 0 1
    outer loop
      vertex -1.35364 12.8791 31.6
      vertex -16.55 15.05 31.6
      vertex -2.24874 12.7533 31.6
    endloop
  endfacet
  facet normal 0 0 1
    outer loop
      vertex -0.451948 12.9421 31.6
      vertex -16.55 15.05 31.6
      vertex -1.35364 12.8791 31.6
    endloop
  endfacet
  facet normal -0 0 1
    outer loop
      vertex 12.9185 -0.903346 31.6
      vertex 16.55 -15.05 31.6
      vertex 12.95 0 31.6
    endloop
  endfacet
  facet normal -0 0 1
    outer loop
      vertex 12.824 -1.80229 31.6
      vertex 16.55 -15.05 31.6
      vertex 12.9185 -0.903346 31.6
    endloop
  endfacet
  facet normal -0 0 1
    outer loop
      vertex 12.667 -2.69246 31.6
      vertex 16.55 -15.05 31.6
      vertex 12.824 -1.80229 31.6
    endloop
  endfacet
  facet normal -0 0 1
    outer loop
      vertex 12.4483 -3.5695 31.6
      vertex 16.55 -15.05 31.6
      vertex 12.667 -2.69246 31.6
    endloop
  endfacet
  facet normal -0 0 1
    outer loop
      vertex 12.169 -4.42916 31.6
      vertex 16.55 -15.05 31.6
      vertex 12.4483 -3.5695 31.6
    endloop
  endfacet
  facet normal -0 0 1
    outer loop
      vertex 11.8304 -5.26724 31.6
      vertex 16.55 -15.05 31.6
      vertex 12.169 -4.42916 31.6
    endloop
  endfacet
  facet normal -0 0 1
    outer loop
      vertex 11.4342 -6.07966 31.6
      vertex 16.55 -15.05 31.6
      vertex 11.8304 -5.26724 31.6
    endloop
  endfacet
  facet normal -0 0 1
    outer loop
      vertex 10.9822 -6.86245 31.6
      vertex 16.55 -15.05 31.6
      vertex 11.4342 -6.07966 31.6
    endloop
  endfacet
  facet normal -0 0 1
    outer loop
      vertex 10.4768 -7.61182 31.6
      vertex 16.55 -15.05 31.6
      vertex 10.9822 -6.86245 31.6
    endloop
  endfacet
  facet normal -0 0 1
    outer loop
      vertex 9.92027 -8.3241 31.6
      vertex 16.55 -15.05 31.6
      vertex 10.4768 -7.61182 31.6
    endloop
  endfacet
  facet normal -0 0 1
    outer loop
      vertex 9.31545 -8.99583 31.6
      vertex 16.55 -15.05 31.6
      vertex 9.92027 -8.3241 31.6
    endloop
  endfacet
  facet normal -0 0 1
    outer loop
      vertex 8.66524 -9.62372 31.6
      vertex 16.55 -15.05 31.6
      vertex 9.31545 -8.99583 31.6
    endloop
  endfacet
  facet normal -0 0 1
    outer loop
      vertex 7.97282 -10.2047 31.6
      vertex 16.55 -15.05 31.6
      vertex 8.66524 -9.62372 31.6
    endloop
  endfacet
  facet normal -0 0 1
    outer loop
      vertex 7.24155 -10.736 31.6
      vertex 16.55 -15.05 31.6
      vertex 7.97282 -10.2047 31.6
    endloop
  endfacet
  facet normal -0 0 1
    outer loop
      vertex 6.475 -11.215 31.6
      vertex 16.55 -15.05 31.6
      vertex 7.24155 -10.736 31.6
    endloop
  endfacet
  facet normal -0 0 1
    outer loop
      vertex 5.67691 -11.6394 31.6
      vertex 16.55 -15.05 31.6
      vertex 6.475 -11.215 31.6
    endloop
  endfacet
  facet normal -0 0 1
    outer loop
      vertex 4.85116 -12.007 31.6
      vertex 16.55 -15.05 31.6
      vertex 5.67691 -11.6394 31.6
    endloop
  endfacet
  facet normal -0 0 1
    outer loop
      vertex 4.00177 -12.3162 31.6
      vertex 16.55 -15.05 31.6
      vertex 4.85116 -12.007 31.6
    endloop
  endfacet
  facet normal -0 0 1
    outer loop
      vertex 3.13289 -12.5653 31.6
      vertex 16.55 -15.05 31.6
      vertex 4.00177 -12.3162 31.6
    endloop
  endfacet
  facet normal -0 0 1
    outer loop
      vertex 2.24874 -12.7533 31.6
      vertex 16.55 -15.05 31.6
      vertex 3.13289 -12.5653 31.6
    endloop
  endfacet
  facet normal -0 0 1
    outer loop
      vertex 1.35364 -12.8791 31.6
      vertex 16.55 -15.05 31.6
      vertex 2.24874 -12.7533 31.6
    endloop
  endfacet
  facet normal -0 0 1
    outer loop
      vertex 0.451948 -12.9421 31.6
      vertex 16.55 -15.05 31.6
      vertex 1.35364 -12.8791 31.6
    endloop
  endfacet
  facet normal -0 0 1
    outer loop
      vertex -0.451948 -12.9421 31.6
      vertex 16.55 -15.05 31.6
      vertex 0.451948 -12.9421 31.6
    endloop
  endfacet
  facet normal 0 0 1
    outer loop
      vertex -16.55 -15.05 31.6
      vertex -0.451948 -12.9421 31.6
      vertex -1.35364 -12.8791 31.6
    endloop
  endfacet
  facet normal 0 0 1
    outer loop
      vertex -16.55 -15.05 31.6
      vertex -12.95 0 31.6
      vertex -16.55 15.05 31.6
    endloop
  endfacet
  facet normal 0 0 1
    outer loop
      vertex -12.95 0 31.6
      vertex -16.55 -15.05 31.6
      vertex -12.9185 -0.903346 31.6
    endloop
  endfacet
  facet normal 0 0 1
    outer loop
      vertex -12.9185 -0.903346 31.6
      vertex -16.55 -15.05 31.6
      vertex -12.824 -1.80229 31.6
    endloop
  endfacet
  facet normal 0 0 1
    outer loop
      vertex -0.451948 -12.9421 31.6
      vertex -16.55 -15.05 31.6
      vertex 16.55 -15.05 31.6
    endloop
  endfacet
  facet normal 0 0 1
    outer loop
      vertex -2.24874 -12.7533 31.6
      vertex -16.55 -15.05 31.6
      vertex -1.35364 -12.8791 31.6
    endloop
  endfacet
  facet normal 0 0 1
    outer loop
      vertex -3.13289 -12.5653 31.6
      vertex -16.55 -15.05 31.6
      vertex -2.24874 -12.7533 31.6
    endloop
  endfacet
  facet normal 0 0 1
    outer loop
      vertex -4.00177 -12.3162 31.6
      vertex -16.55 -15.05 31.6
      vertex -3.13289 -12.5653 31.6
    endloop
  endfacet
  facet normal 0 0 1
    outer loop
      vertex -4.85116 -12.007 31.6
      vertex -16.55 -15.05 31.6
      vertex -4.00177 -12.3162 31.6
    endloop
  endfacet
  facet normal 0 0 1
    outer loop
      vertex -5.67691 -11.6394 31.6
      vertex -16.55 -15.05 31.6
      vertex -4.85116 -12.007 31.6
    endloop
  endfacet
  facet normal 0 0 1
    outer loop
      vertex -6.475 -11.215 31.6
      vertex -16.55 -15.05 31.6
      vertex -5.67691 -11.6394 31.6
    endloop
  endfacet
  facet normal 0 0 1
    outer loop
      vertex -7.24155 -10.736 31.6
      vertex -16.55 -15.05 31.6
      vertex -6.475 -11.215 31.6
    endloop
  endfacet
  facet normal 0 0 1
    outer loop
      vertex -7.97282 -10.2047 31.6
      vertex -16.55 -15.05 31.6
      vertex -7.24155 -10.736 31.6
    endloop
  endfacet
  facet normal 0 0 1
    outer loop
      vertex -8.66524 -9.62372 31.6
      vertex -16.55 -15.05 31.6
      vertex -7.97282 -10.2047 31.6
    endloop
  endfacet
  facet normal 0 0 1
    outer loop
      vertex -9.31545 -8.99583 31.6
      vertex -16.55 -15.05 31.6
      vertex -8.66524 -9.62372 31.6
    endloop
  endfacet
  facet normal 0 0 1
    outer loop
      vertex -9.92027 -8.3241 31.6
      vertex -16.55 -15.05 31.6
      vertex -9.31545 -8.99583 31.6
    endloop
  endfacet
  facet normal 0 0 1
    outer loop
      vertex -10.4768 -7.61182 31.6
      vertex -16.55 -15.05 31.6
      vertex -9.92027 -8.3241 31.6
    endloop
  endfacet
  facet normal 0 0 1
    outer loop
      vertex -10.9822 -6.86245 31.6
      vertex -16.55 -15.05 31.6
      vertex -10.4768 -7.61182 31.6
    endloop
  endfacet
  facet normal 0 0 1
    outer loop
      vertex -11.4342 -6.07966 31.6
      vertex -16.55 -15.05 31.6
      vertex -10.9822 -6.86245 31.6
    endloop
  endfacet
  facet normal 0 0 1
    outer loop
      vertex -11.8304 -5.26724 31.6
      vertex -16.55 -15.05 31.6
      vertex -11.4342 -6.07966 31.6
    endloop
  endfacet
  facet normal 0 0 1
    outer loop
      vertex -12.169 -4.42916 31.6
      vertex -16.55 -15.05 31.6
      vertex -11.8304 -5.26724 31.6
    endloop
  endfacet
  facet normal 0 0 1
    outer loop
      vertex -12.4483 -3.5695 31.6
      vertex -16.55 -15.05 31.6
      vertex -12.169 -4.42916 31.6
    endloop
  endfacet
  facet normal 0 0 1
    outer loop
      vertex -12.667 -2.69246 31.6
      vertex -16.55 -15.05 31.6
      vertex -12.4483 -3.5695 31.6
    endloop
  endfacet
  facet normal 0 0 1
    outer loop
      vertex -12.824 -1.80229 31.6
      vertex -16.55 -15.05 31.6
      vertex -12.667 -2.69246 31.6
    endloop
  endfacet
  facet normal 0 0 -1
    outer loop
      vertex 12.4483 3.5695 17.5
      vertex 16.55 3 17.5
      vertex 12.5903 3 17.5
    endloop
  endfacet
  facet normal 0 0 -1
    outer loop
      vertex 12.169 4.42916 17.5
      vertex 16.55 3 17.5
      vertex 12.4483 3.5695 17.5
    endloop
  endfacet
  facet normal 0 0 -1
    outer loop
      vertex 11.8304 5.26724 17.5
      vertex 16.55 3 17.5
      vertex 12.169 4.42916 17.5
    endloop
  endfacet
  facet normal 0 0 -1
    outer loop
      vertex 11.4342 6.07966 17.5
      vertex 16.55 3 17.5
      vertex 11.8304 5.26724 17.5
    endloop
  endfacet
  facet normal 0 0 -1
    outer loop
      vertex 16.55 3 17.5
      vertex 11.4342 6.07966 17.5
      vertex 16.55 15.05 17.5
    endloop
  endfacet
  facet normal 0 0 -1
    outer loop
      vertex 10.9822 6.86245 17.5
      vertex 16.55 15.05 17.5
      vertex 11.4342 6.07966 17.5
    endloop
  endfacet
  facet normal 0 0 -1
    outer loop
      vertex 10.4768 7.61182 17.5
      vertex 16.55 15.05 17.5
      vertex 10.9822 6.86245 17.5
    endloop
  endfacet
  facet normal 0 0 -1
    outer loop
      vertex 9.92027 8.3241 17.5
      vertex 16.55 15.05 17.5
      vertex 10.4768 7.61182 17.5
    endloop
  endfacet
  facet normal 0 0 -1
    outer loop
      vertex 9.31545 8.99583 17.5
      vertex 16.55 15.05 17.5
      vertex 9.92027 8.3241 17.5
    endloop
  endfacet
  facet normal 0 0 -1
    outer loop
      vertex 8.66524 9.62372 17.5
      vertex 16.55 15.05 17.5
      vertex 9.31545 8.99583 17.5
    endloop
  endfacet
  facet normal 0 0 -1
    outer loop
      vertex 7.97282 10.2047 17.5
      vertex 16.55 15.05 17.5
      vertex 8.66524 9.62372 17.5
    endloop
  endfacet
  facet normal 0 0 -1
    outer loop
      vertex 7.24155 10.736 17.5
      vertex 16.55 15.05 17.5
      vertex 7.97282 10.2047 17.5
    endloop
  endfacet
  facet normal 0 0 -1
    outer loop
      vertex 6.475 11.215 17.5
      vertex 16.55 15.05 17.5
      vertex 7.24155 10.736 17.5
    endloop
  endfacet
  facet normal 0 0 -1
    outer loop
      vertex 5.67691 11.6394 17.5
      vertex 16.55 15.05 17.5
      vertex 6.475 11.215 17.5
    endloop
  endfacet
  facet normal 0 0 -1
    outer loop
      vertex 4.85116 12.007 17.5
      vertex 16.55 15.05 17.5
      vertex 5.67691 11.6394 17.5
    endloop
  endfacet
  facet normal 0 0 -1
    outer loop
      vertex 4.00177 12.3162 17.5
      vertex 16.55 15.05 17.5
      vertex 4.85116 12.007 17.5
    endloop
  endfacet
  facet normal 0 0 -1
    outer loop
      vertex 3.13289 12.5653 17.5
      vertex 16.55 15.05 17.5
      vertex 4.00177 12.3162 17.5
    endloop
  endfacet
  facet normal 0 0 -1
    outer loop
      vertex 2.24874 12.7533 17.5
      vertex 16.55 15.05 17.5
      vertex 3.13289 12.5653 17.5
    endloop
  endfacet
  facet normal 0 0 -1
    outer loop
      vertex 1.35364 12.8791 17.5
      vertex 16.55 15.05 17.5
      vertex 2.24874 12.7533 17.5
    endloop
  endfacet
  facet normal 0 0 -1
    outer loop
      vertex 0.451948 12.9421 17.5
      vertex 16.55 15.05 17.5
      vertex 1.35364 12.8791 17.5
    endloop
  endfacet
  facet normal 0 0 -1
    outer loop
      vertex -0.451948 12.9421 17.5
      vertex 16.55 15.05 17.5
      vertex 0.451948 12.9421 17.5
    endloop
  endfacet
  facet normal 0 0 -1
    outer loop
      vertex -16.55 15.05 17.5
      vertex -0.451948 12.9421 17.5
      vertex -1.35364 12.8791 17.5
    endloop
  endfacet
  facet normal 0 0 -1
    outer loop
      vertex -16.55 3 17.5
      vertex -12.4483 3.5695 17.5
      vertex -12.5903 3 17.5
    endloop
  endfacet
  facet normal 0 0 -1
    outer loop
      vertex -16.55 3 17.5
      vertex -12.169 4.42916 17.5
      vertex -12.4483 3.5695 17.5
    endloop
  endfacet
  facet normal 0 0 -1
    outer loop
      vertex -16.55 3 17.5
      vertex -11.8304 5.26724 17.5
      vertex -12.169 4.42916 17.5
    endloop
  endfacet
  facet normal 0 0 -1
    outer loop
      vertex -16.55 3 17.5
      vertex -11.4342 6.07966 17.5
      vertex -11.8304 5.26724 17.5
    endloop
  endfacet
  facet normal 0 0 -1
    outer loop
      vertex -16.55 15.05 17.5
      vertex -11.4342 6.07966 17.5
      vertex -16.55 3 17.5
    endloop
  endfacet
  facet normal 0 0 -1
    outer loop
      vertex -11.4342 6.07966 17.5
      vertex -16.55 15.05 17.5
      vertex -10.9822 6.86245 17.5
    endloop
  endfacet
  facet normal 0 0 -1
    outer loop
      vertex -10.9822 6.86245 17.5
      vertex -16.55 15.05 17.5
      vertex -10.4768 7.61182 17.5
    endloop
  endfacet
  facet normal 0 0 -1
    outer loop
      vertex -10.4768 7.61182 17.5
      vertex -16.55 15.05 17.5
      vertex -9.92027 8.3241 17.5
    endloop
  endfacet
  facet normal 0 0 -1
    outer loop
      vertex -9.92027 8.3241 17.5
      vertex -16.55 15.05 17.5
      vertex -9.31545 8.99583 17.5
    endloop
  endfacet
  facet normal 0 0 -1
    outer loop
      vertex -0.451948 12.9421 17.5
      vertex -16.55 15.05 17.5
      vertex 16.55 15.05 17.5
    endloop
  endfacet
  facet normal 0 0 -1
    outer loop
      vertex -2.24874 12.7533 17.5
      vertex -16.55 15.05 17.5
      vertex -1.35364 12.8791 17.5
    endloop
  endfacet
  facet normal 0 0 -1
    outer loop
      vertex -3.13289 12.5653 17.5
      vertex -16.55 15.05 17.5
      vertex -2.24874 12.7533 17.5
    endloop
  endfacet
  facet normal 0 0 -1
    outer loop
      vertex -4.00177 12.3162 17.5
      vertex -16.55 15.05 17.5
      vertex -3.13289 12.5653 17.5
    endloop
  endfacet
  facet normal 0 0 -1
    outer loop
      vertex -4.85116 12.007 17.5
      vertex -16.55 15.05 17.5
      vertex -4.00177 12.3162 17.5
    endloop
  endfacet
  facet normal 0 0 -1
    outer loop
      vertex -5.67691 11.6394 17.5
      vertex -16.55 15.05 17.5
      vertex -4.85116 12.007 17.5
    endloop
  endfacet
  facet normal 0 0 -1
    outer loop
      vertex -6.475 11.215 17.5
      vertex -16.55 15.05 17.5
      vertex -5.67691 11.6394 17.5
    endloop
  endfacet
  facet normal 0 0 -1
    outer loop
      vertex -7.24155 10.736 17.5
      vertex -16.55 15.05 17.5
      vertex -6.475 11.215 17.5
    endloop
  endfacet
  facet normal 0 0 -1
    outer loop
      vertex -7.97282 10.2047 17.5
      vertex -16.55 15.05 17.5
      vertex -7.24155 10.736 17.5
    endloop
  endfacet
  facet normal 0 0 -1
    outer loop
      vertex -8.66524 9.62372 17.5
      vertex -16.55 15.05 17.5
      vertex -7.97282 10.2047 17.5
    endloop
  endfacet
  facet normal 0 0 -1
    outer loop
      vertex -9.31545 8.99583 17.5
      vertex -16.55 15.05 17.5
      vertex -8.66524 9.62372 17.5
    endloop
  endfacet
  facet normal 0 0 -1
    outer loop
      vertex 11.4342 -6.07966 17.5
      vertex 16.55 -3 17.5
      vertex 16.55 -15.05 17.5
    endloop
  endfacet
  facet normal -0 0 -1
    outer loop
      vertex 16.55 -3 17.5
      vertex 12.4483 -3.5695 17.5
      vertex 12.5903 -3 17.5
    endloop
  endfacet
  facet normal 0 0 -1
    outer loop
      vertex 16.55 -3 17.5
      vertex 12.169 -4.42916 17.5
      vertex 12.4483 -3.5695 17.5
    endloop
  endfacet
  facet normal 0 0 -1
    outer loop
      vertex 16.55 -3 17.5
      vertex 11.8304 -5.26724 17.5
      vertex 12.169 -4.42916 17.5
    endloop
  endfacet
  facet normal 0 0 -1
    outer loop
      vertex 16.55 -3 17.5
      vertex 11.4342 -6.07966 17.5
      vertex 11.8304 -5.26724 17.5
    endloop
  endfacet
  facet normal 0 0 -1
    outer loop
      vertex 16.55 -15.05 17.5
      vertex 10.9822 -6.86245 17.5
      vertex 11.4342 -6.07966 17.5
    endloop
  endfacet
  facet normal 0 0 -1
    outer loop
      vertex 16.55 -15.05 17.5
      vertex 10.4768 -7.61182 17.5
      vertex 10.9822 -6.86245 17.5
    endloop
  endfacet
  facet normal 0 0 -1
    outer loop
      vertex 16.55 -15.05 17.5
      vertex 9.92027 -8.3241 17.5
      vertex 10.4768 -7.61182 17.5
    endloop
  endfacet
  facet normal 0 0 -1
    outer loop
      vertex 16.55 -15.05 17.5
      vertex 9.31545 -8.99583 17.5
      vertex 9.92027 -8.3241 17.5
    endloop
  endfacet
  facet normal 0 0 -1
    outer loop
      vertex 16.55 -15.05 17.5
      vertex 8.66524 -9.62372 17.5
      vertex 9.31545 -8.99583 17.5
    endloop
  endfacet
  facet normal 0 0 -1
    outer loop
      vertex 16.55 -15.05 17.5
      vertex 7.97282 -10.2047 17.5
      vertex 8.66524 -9.62372 17.5
    endloop
  endfacet
  facet normal 0 0 -1
    outer loop
      vertex 16.55 -15.05 17.5
      vertex 7.24155 -10.736 17.5
      vertex 7.97282 -10.2047 17.5
    endloop
  endfacet
  facet normal 0 0 -1
    outer loop
      vertex 16.55 -15.05 17.5
      vertex 6.475 -11.215 17.5
      vertex 7.24155 -10.736 17.5
    endloop
  endfacet
  facet normal 0 0 -1
    outer loop
      vertex 16.55 -15.05 17.5
      vertex 5.67691 -11.6394 17.5
      vertex 6.475 -11.215 17.5
    endloop
  endfacet
  facet normal 0 0 -1
    outer loop
      vertex 16.55 -15.05 17.5
      vertex 4.85116 -12.007 17.5
      vertex 5.67691 -11.6394 17.5
    endloop
  endfacet
  facet normal 0 0 -1
    outer loop
      vertex 16.55 -15.05 17.5
      vertex 4.00177 -12.3162 17.5
      vertex 4.85116 -12.007 17.5
    endloop
  endfacet
  facet normal 0 0 -1
    outer loop
      vertex 16.55 -15.05 17.5
      vertex 3.13289 -12.5653 17.5
      vertex 4.00177 -12.3162 17.5
    endloop
  endfacet
  facet normal 0 0 -1
    outer loop
      vertex 16.55 -15.05 17.5
      vertex 2.24874 -12.7533 17.5
      vertex 3.13289 -12.5653 17.5
    endloop
  endfacet
  facet normal 0 0 -1
    outer loop
      vertex 16.55 -15.05 17.5
      vertex 1.35364 -12.8791 17.5
      vertex 2.24874 -12.7533 17.5
    endloop
  endfacet
  facet normal 0 0 -1
    outer loop
      vertex 16.55 -15.05 17.5
      vertex 0.451948 -12.9421 17.5
      vertex 1.35364 -12.8791 17.5
    endloop
  endfacet
  facet normal 0 0 -1
    outer loop
      vertex 16.55 -15.05 17.5
      vertex -0.451948 -12.9421 17.5
      vertex 0.451948 -12.9421 17.5
    endloop
  endfacet
  facet normal 0 0 -1
    outer loop
      vertex -16.55 -15.05 17.5
      vertex -0.451948 -12.9421 17.5
      vertex 16.55 -15.05 17.5
    endloop
  endfacet
  facet normal -0 0 -1
    outer loop
      vertex -0.451948 -12.9421 17.5
      vertex -16.55 -15.05 17.5
      vertex -1.35364 -12.8791 17.5
    endloop
  endfacet
  facet normal 0 0 -1
    outer loop
      vertex -16.55 -15.05 17.5
      vertex -2.24874 -12.7533 17.5
      vertex -1.35364 -12.8791 17.5
    endloop
  endfacet
  facet normal 0 0 -1
    outer loop
      vertex -16.55 -15.05 17.5
      vertex -3.13289 -12.5653 17.5
      vertex -2.24874 -12.7533 17.5
    endloop
  endfacet
  facet normal 0 0 -1
    outer loop
      vertex -16.55 -15.05 17.5
      vertex -4.00177 -12.3162 17.5
      vertex -3.13289 -12.5653 17.5
    endloop
  endfacet
  facet normal 0 0 -1
    outer loop
      vertex -16.55 -15.05 17.5
      vertex -4.85116 -12.007 17.5
      vertex -4.00177 -12.3162 17.5
    endloop
  endfacet
  facet normal 0 0 -1
    outer loop
      vertex -16.55 -15.05 17.5
      vertex -5.67691 -11.6394 17.5
      vertex -4.85116 -12.007 17.5
    endloop
  endfacet
  facet normal 0 0 -1
    outer loop
      vertex -16.55 -15.05 17.5
      vertex -6.475 -11.215 17.5
      vertex -5.67691 -11.6394 17.5
    endloop
  endfacet
  facet normal 0 0 -1
    outer loop
      vertex -16.55 -15.05 17.5
      vertex -7.24155 -10.736 17.5
      vertex -6.475 -11.215 17.5
    endloop
  endfacet
  facet normal 0 0 -1
    outer loop
      vertex -16.55 -15.05 17.5
      vertex -7.97282 -10.2047 17.5
      vertex -7.24155 -10.736 17.5
    endloop
  endfacet
  facet normal 0 0 -1
    outer loop
      vertex -16.55 -15.05 17.5
      vertex -8.66524 -9.62372 17.5
      vertex -7.97282 -10.2047 17.5
    endloop
  endfacet
  facet normal 0 0 -1
    outer loop
      vertex -16.55 -15.05 17.5
      vertex -9.31545 -8.99583 17.5
      vertex -8.66524 -9.62372 17.5
    endloop
  endfacet
  facet normal 0 0 -1
    outer loop
      vertex -16.55 -15.05 17.5
      vertex -9.92027 -8.3241 17.5
      vertex -9.31545 -8.99583 17.5
    endloop
  endfacet
  facet normal 0 0 -1
    outer loop
      vertex -16.55 -15.05 17.5
      vertex -10.4768 -7.61182 17.5
      vertex -9.92027 -8.3241 17.5
    endloop
  endfacet
  facet normal 0 0 -1
    outer loop
      vertex -16.55 -15.05 17.5
      vertex -10.9822 -6.86245 17.5
      vertex -10.4768 -7.61182 17.5
    endloop
  endfacet
  facet normal 0 0 -1
    outer loop
      vertex -16.55 -15.05 17.5
      vertex -11.4342 -6.07966 17.5
      vertex -10.9822 -6.86245 17.5
    endloop
  endfacet
  facet normal 0 0 -1
    outer loop
      vertex -16.55 -3 17.5
      vertex -11.4342 -6.07966 17.5
      vertex -16.55 -15.05 17.5
    endloop
  endfacet
  facet normal 0 0 -1
    outer loop
      vertex -11.4342 -6.07966 17.5
      vertex -16.55 -3 17.5
      vertex -11.8304 -5.26724 17.5
    endloop
  endfacet
  facet normal 0 0 -1
    outer loop
      vertex -11.8304 -5.26724 17.5
      vertex -16.55 -3 17.5
      vertex -12.169 -4.42916 17.5
    endloop
  endfacet
  facet normal 0 0 -1
    outer loop
      vertex -12.169 -4.42916 17.5
      vertex -16.55 -3 17.5
      vertex -12.4483 -3.5695 17.5
    endloop
  endfacet
  facet normal 0 0 -1
    outer loop
      vertex -12.4483 -3.5695 17.5
      vertex -16.55 -3 17.5
      vertex -12.5903 -3 17.5
    endloop
  endfacet
  facet normal -1 0 0
    outer loop
      vertex -16.55 -3 17.5
      vertex -16.55 -15.05 17.5
      vertex -16.55 -3 19.6
    endloop
  endfacet
  facet normal -1 0 0
    outer loop
      vertex -16.55 3 19.6
      vertex -16.55 15.05 17.5
      vertex -16.55 3 17.5
    endloop
  endfacet
  facet normal -1 0 0
    outer loop
      vertex -16.55 15.05 17.5
      vertex -16.55 3 19.6
      vertex -16.55 15.05 31.6
    endloop
  endfacet
  facet normal -1 0 0
    outer loop
      vertex -16.55 -3 19.6
      vertex -16.55 15.05 31.6
      vertex -16.55 3 19.6
    endloop
  endfacet
  facet normal -1 0 0
    outer loop
      vertex -16.55 -15.05 31.6
      vertex -16.55 -3 19.6
      vertex -16.55 -15.05 17.5
    endloop
  endfacet
  facet normal -1 0 0
    outer loop
      vertex -16.55 -3 19.6
      vertex -16.55 -15.05 31.6
      vertex -16.55 15.05 31.6
    endloop
  endfacet
  facet normal 0 1 -0
    outer loop
      vertex 16.55 15.05 17.5
      vertex -16.55 15.05 31.6
      vertex 16.55 15.05 31.6
    endloop
  endfacet
  facet normal 0 1 0
    outer loop
      vertex -16.55 15.05 31.6
      vertex 16.55 15.05 17.5
      vertex -16.55 15.05 17.5
    endloop
  endfacet
  facet normal 0 -1 0
    outer loop
      vertex -16.55 -15.05 17.5
      vertex 16.55 -15.05 31.6
      vertex -16.55 -15.05 31.6
    endloop
  endfacet
  facet normal 0 -1 -0
    outer loop
      vertex 16.55 -15.05 31.6
      vertex -16.55 -15.05 17.5
      vertex 16.55 -15.05 17.5
    endloop
  endfacet
  facet normal -0.99452 -0.104547 0
    outer loop
      vertex 12.9185 0.903346 27.1
      vertex 12.824 1.80229 31.6
      vertex 12.824 1.80229 27.1
    endloop
  endfacet
  facet normal -0.99452 -0.104547 0
    outer loop
      vertex 12.824 1.80229 31.6
      vertex 12.9185 0.903346 27.1
      vertex 12.9185 0.903346 31.6
    endloop
  endfacet
  facet normal 0.139175 -0.990268 0
    outer loop
      vertex -2.24874 12.7533 17.5
      vertex -1.35364 12.8791 31.6
      vertex -2.24874 12.7533 31.6
    endloop
  endfacet
  facet normal 0.139175 -0.990268 0
    outer loop
      vertex -1.35364 12.8791 31.6
      vertex -2.24874 12.7533 17.5
      vertex -1.35364 12.8791 17.5
    endloop
  endfacet
  facet normal 0.0696987 -0.997568 0
    outer loop
      vertex -1.35364 12.8791 17.5
      vertex -0.451948 12.9421 31.6
      vertex -1.35364 12.8791 31.6
    endloop
  endfacet
  facet normal 0.0696987 -0.997568 0
    outer loop
      vertex -0.451948 12.9421 31.6
      vertex -1.35364 12.8791 17.5
      vertex -0.451948 12.9421 17.5
    endloop
  endfacet
  facet normal -0.829067 -0.55915 0
    outer loop
      vertex 10.9822 6.86245 17.5
      vertex 10.4768 7.61182 31.6
      vertex 10.4768 7.61182 17.5
    endloop
  endfacet
  facet normal -0.829067 -0.55915 0
    outer loop
      vertex 10.4768 7.61182 31.6
      vertex 10.9822 6.86245 17.5
      vertex 10.9822 6.86245 31.6
    endloop
  endfacet
  facet normal 0.999393 0.0348492 0
    outer loop
      vertex -12.9185 -0.903346 31.6
      vertex -12.95 0 27.1
      vertex -12.95 0 31.6
    endloop
  endfacet
  facet normal 0.999393 0.0348492 0
    outer loop
      vertex -12.95 0 27.1
      vertex -12.9185 -0.903346 31.6
      vertex -12.9185 -0.903346 27.1
    endloop
  endfacet
  facet normal 0.694652 0.719346 -0
    outer loop
      vertex -8.66524 -9.62372 17.5
      vertex -9.31545 -8.99583 31.6
      vertex -8.66524 -9.62372 31.6
    endloop
  endfacet
  facet normal 0.694652 0.719346 0
    outer loop
      vertex -9.31545 -8.99583 31.6
      vertex -8.66524 -9.62372 17.5
      vertex -9.31545 -8.99583 17.5
    endloop
  endfacet
  facet normal -0.99452 0.104547 0
    outer loop
      vertex 12.824 -1.80229 27.1
      vertex 12.9185 -0.903346 31.6
      vertex 12.9185 -0.903346 27.1
    endloop
  endfacet
  facet normal -0.99452 0.104547 0
    outer loop
      vertex 12.9185 -0.903346 31.6
      vertex 12.824 -1.80229 27.1
      vertex 12.824 -1.80229 31.6
    endloop
  endfacet
  facet normal -0.9848 -0.17369 0
    outer loop
      vertex 12.824 1.80229 27.1
      vertex 12.667 2.69246 31.6
      vertex 12.667 2.69246 27.1
    endloop
  endfacet
  facet normal -0.9848 -0.17369 0
    outer loop
      vertex 12.667 2.69246 31.6
      vertex 12.824 1.80229 27.1
      vertex 12.824 1.80229 31.6
    endloop
  endfacet
  facet normal 0.0696987 0.997568 -0
    outer loop
      vertex -0.451948 -12.9421 17.5
      vertex -1.35364 -12.8791 31.6
      vertex -0.451948 -12.9421 31.6
    endloop
  endfacet
  facet normal 0.0696987 0.997568 0
    outer loop
      vertex -1.35364 -12.8791 31.6
      vertex -0.451948 -12.9421 17.5
      vertex -1.35364 -12.8791 17.5
    endloop
  endfacet
  facet normal -0.898813 -0.438332 0
    outer loop
      vertex 11.8304 5.26724 17.5
      vertex 11.4342 6.07966 31.6
      vertex 11.4342 6.07966 17.5
    endloop
  endfacet
  facet normal -0.898813 -0.438332 0
    outer loop
      vertex 11.4342 6.07966 31.6
      vertex 11.8304 5.26724 17.5
      vertex 11.8304 5.26724 31.6
    endloop
  endfacet
  facet normal -0.694652 -0.719346 0
    outer loop
      vertex 8.66524 9.62372 17.5
      vertex 9.31545 8.99583 31.6
      vertex 8.66524 9.62372 31.6
    endloop
  endfacet
  facet normal -0.694652 -0.719346 -0
    outer loop
      vertex 9.31545 8.99583 31.6
      vertex 8.66524 9.62372 17.5
      vertex 9.31545 8.99583 17.5
    endloop
  endfacet
  facet normal 0.9848 0.17369 0
    outer loop
      vertex -12.667 -2.69246 31.6
      vertex -12.824 -1.80229 27.1
      vertex -12.824 -1.80229 31.6
    endloop
  endfacet
  facet normal 0.9848 0.17369 0
    outer loop
      vertex -12.824 -1.80229 27.1
      vertex -12.667 -2.69246 31.6
      vertex -12.667 -2.69246 27.1
    endloop
  endfacet
  facet normal 0.97028 0.241986 0
    outer loop
      vertex -12.667 -2.69246 31.6
      vertex -12.5903 -3 27.1
      vertex -12.667 -2.69246 27.1
    endloop
  endfacet
  facet normal 0.970288 0.241952 2.45112e-06
    outer loop
      vertex -12.4483 -3.5695 31.6
      vertex -12.5903 -3 27.1
      vertex -12.667 -2.69246 31.6
    endloop
  endfacet
  facet normal 0.970293 0.241934 -0
    outer loop
      vertex -12.4483 -3.5695 17.5
      vertex -12.5903 -3 27.1
      vertex -12.4483 -3.5695 31.6
    endloop
  endfacet
  facet normal 0.970293 0.241934 0
    outer loop
      vertex -12.5903 -3 27.1
      vertex -12.4483 -3.5695 17.5
      vertex -12.5903 -3 17.5
    endloop
  endfacet
  facet normal 0.342066 -0.939676 0
    outer loop
      vertex -4.85116 12.007 17.5
      vertex -4.00177 12.3162 31.6
      vertex -4.85116 12.007 31.6
    endloop
  endfacet
  facet normal 0.342066 -0.939676 0
    outer loop
      vertex -4.00177 12.3162 31.6
      vertex -4.85116 12.007 17.5
      vertex -4.00177 12.3162 17.5
    endloop
  endfacet
  facet normal -0.275589 0.961276 0
    outer loop
      vertex 4.00177 -12.3162 17.5
      vertex 3.13289 -12.5653 31.6
      vertex 4.00177 -12.3162 31.6
    endloop
  endfacet
  facet normal -0.275589 0.961276 0
    outer loop
      vertex 3.13289 -12.5653 31.6
      vertex 4.00177 -12.3162 17.5
      vertex 3.13289 -12.5653 17.5
    endloop
  endfacet
  facet normal -0.587786 -0.809016 0
    outer loop
      vertex 7.24155 10.736 17.5
      vertex 7.97282 10.2047 31.6
      vertex 7.24155 10.736 31.6
    endloop
  endfacet
  facet normal -0.587786 -0.809016 -0
    outer loop
      vertex 7.97282 10.2047 31.6
      vertex 7.24155 10.736 17.5
      vertex 7.97282 10.2047 17.5
    endloop
  endfacet
  facet normal 0.694652 -0.719346 0
    outer loop
      vertex -9.31545 8.99583 17.5
      vertex -8.66524 9.62372 31.6
      vertex -9.31545 8.99583 31.6
    endloop
  endfacet
  facet normal 0.694652 -0.719346 0
    outer loop
      vertex -8.66524 9.62372 31.6
      vertex -9.31545 8.99583 17.5
      vertex -8.66524 9.62372 17.5
    endloop
  endfacet
  facet normal -0.927186 -0.374601 0
    outer loop
      vertex 12.169 4.42916 17.5
      vertex 11.8304 5.26724 31.6
      vertex 11.8304 5.26724 17.5
    endloop
  endfacet
  facet normal -0.927186 -0.374601 0
    outer loop
      vertex 11.8304 5.26724 31.6
      vertex 12.169 4.42916 17.5
      vertex 12.169 4.42916 31.6
    endloop
  endfacet
  facet normal -0.642769 -0.76606 0
    outer loop
      vertex 7.97282 10.2047 17.5
      vertex 8.66524 9.62372 31.6
      vertex 7.97282 10.2047 31.6
    endloop
  endfacet
  facet normal -0.642769 -0.76606 -0
    outer loop
      vertex 8.66524 9.62372 31.6
      vertex 7.97282 10.2047 17.5
      vertex 8.66524 9.62372 17.5
    endloop
  endfacet
  facet normal -0.865999 0.500046 0
    outer loop
      vertex 10.9822 -6.86245 17.5
      vertex 11.4342 -6.07966 31.6
      vertex 11.4342 -6.07966 17.5
    endloop
  endfacet
  facet normal -0.865999 0.500046 0
    outer loop
      vertex 11.4342 -6.07966 31.6
      vertex 10.9822 -6.86245 17.5
      vertex 10.9822 -6.86245 31.6
    endloop
  endfacet
  facet normal -0.970293 -0.241934 -0
    outer loop
      vertex 12.5903 3 27.1
      vertex 12.4483 3.5695 17.5
      vertex 12.5903 3 17.5
    endloop
  endfacet
  facet normal -0.970293 -0.241934 0
    outer loop
      vertex 12.4483 3.5695 17.5
      vertex 12.5903 3 27.1
      vertex 12.4483 3.5695 31.6
    endloop
  endfacet
  facet normal -0.97028 -0.241986 -0
    outer loop
      vertex 12.667 2.69246 31.6
      vertex 12.5903 3 27.1
      vertex 12.667 2.69246 27.1
    endloop
  endfacet
  facet normal -0.970288 -0.241952 2.45112e-06
    outer loop
      vertex 12.5903 3 27.1
      vertex 12.667 2.69246 31.6
      vertex 12.4483 3.5695 31.6
    endloop
  endfacet
  facet normal 0 1 -0
    outer loop
      vertex 0.451948 -12.9421 17.5
      vertex -0.451948 -12.9421 31.6
      vertex 0.451948 -12.9421 31.6
    endloop
  endfacet
  facet normal 0 1 0
    outer loop
      vertex -0.451948 -12.9421 31.6
      vertex 0.451948 -12.9421 17.5
      vertex -0.451948 -12.9421 17.5
    endloop
  endfacet
  facet normal -0.999393 -0.0348492 0
    outer loop
      vertex 12.95 0 27.1
      vertex 12.9185 0.903346 31.6
      vertex 12.9185 0.903346 27.1
    endloop
  endfacet
  facet normal -0.999393 -0.0348492 0
    outer loop
      vertex 12.9185 0.903346 31.6
      vertex 12.95 0 27.1
      vertex 12.95 0 31.6
    endloop
  endfacet
  facet normal -0.865999 -0.500046 0
    outer loop
      vertex 11.4342 6.07966 17.5
      vertex 10.9822 6.86245 31.6
      vertex 10.9822 6.86245 17.5
    endloop
  endfacet
  facet normal -0.865999 -0.500046 0
    outer loop
      vertex 10.9822 6.86245 31.6
      vertex 11.4342 6.07966 17.5
      vertex 11.4342 6.07966 31.6
    endloop
  endfacet
  facet normal -0.139175 -0.990268 0
    outer loop
      vertex 1.35364 12.8791 17.5
      vertex 2.24874 12.7533 31.6
      vertex 1.35364 12.8791 31.6
    endloop
  endfacet
  facet normal -0.139175 -0.990268 -0
    outer loop
      vertex 2.24874 12.7533 31.6
      vertex 1.35364 12.8791 17.5
      vertex 2.24874 12.7533 17.5
    endloop
  endfacet
  facet normal -0.406693 0.913565 0
    outer loop
      vertex 5.67691 -11.6394 17.5
      vertex 4.85116 -12.007 31.6
      vertex 5.67691 -11.6394 31.6
    endloop
  endfacet
  facet normal -0.406693 0.913565 0
    outer loop
      vertex 4.85116 -12.007 31.6
      vertex 5.67691 -11.6394 17.5
      vertex 4.85116 -12.007 17.5
    endloop
  endfacet
  facet normal -0.743149 0.669125 0
    outer loop
      vertex 9.31545 -8.99583 17.5
      vertex 9.92027 -8.3241 31.6
      vertex 9.92027 -8.3241 17.5
    endloop
  endfacet
  facet normal -0.743149 0.669125 0
    outer loop
      vertex 9.92027 -8.3241 31.6
      vertex 9.31545 -8.99583 17.5
      vertex 9.31545 -8.99583 31.6
    endloop
  endfacet
  facet normal -0.829067 0.55915 0
    outer loop
      vertex 10.4768 -7.61182 17.5
      vertex 10.9822 -6.86245 31.6
      vertex 10.9822 -6.86245 17.5
    endloop
  endfacet
  facet normal -0.829067 0.55915 0
    outer loop
      vertex 10.9822 -6.86245 31.6
      vertex 10.4768 -7.61182 17.5
      vertex 10.4768 -7.61182 31.6
    endloop
  endfacet
  facet normal 0.529924 0.848045 -0
    outer loop
      vertex -6.475 -11.215 17.5
      vertex -7.24155 -10.736 31.6
      vertex -6.475 -11.215 31.6
    endloop
  endfacet
  facet normal 0.529924 0.848045 0
    outer loop
      vertex -7.24155 -10.736 31.6
      vertex -6.475 -11.215 17.5
      vertex -7.24155 -10.736 17.5
    endloop
  endfacet
  facet normal 0.406693 -0.913565 0
    outer loop
      vertex -5.67691 11.6394 17.5
      vertex -4.85116 12.007 31.6
      vertex -5.67691 11.6394 31.6
    endloop
  endfacet
  facet normal 0.406693 -0.913565 0
    outer loop
      vertex -4.85116 12.007 31.6
      vertex -5.67691 11.6394 17.5
      vertex -4.85116 12.007 17.5
    endloop
  endfacet
  facet normal -0.9848 0.17369 0
    outer loop
      vertex 12.667 -2.69246 27.1
      vertex 12.824 -1.80229 31.6
      vertex 12.824 -1.80229 27.1
    endloop
  endfacet
  facet normal -0.9848 0.17369 0
    outer loop
      vertex 12.824 -1.80229 31.6
      vertex 12.667 -2.69246 27.1
      vertex 12.667 -2.69246 31.6
    endloop
  endfacet
  facet normal 0.529924 -0.848045 0
    outer loop
      vertex -7.24155 10.736 17.5
      vertex -6.475 11.215 31.6
      vertex -7.24155 10.736 31.6
    endloop
  endfacet
  facet normal 0.529924 -0.848045 0
    outer loop
      vertex -6.475 11.215 31.6
      vertex -7.24155 10.736 17.5
      vertex -6.475 11.215 17.5
    endloop
  endfacet
  facet normal 0.275589 0.961276 -0
    outer loop
      vertex -3.13289 -12.5653 17.5
      vertex -4.00177 -12.3162 31.6
      vertex -3.13289 -12.5653 31.6
    endloop
  endfacet
  facet normal 0.275589 0.961276 0
    outer loop
      vertex -4.00177 -12.3162 31.6
      vertex -3.13289 -12.5653 17.5
      vertex -4.00177 -12.3162 17.5
    endloop
  endfacet
  facet normal 0.207984 0.978132 -0
    outer loop
      vertex -2.24874 -12.7533 17.5
      vertex -3.13289 -12.5653 31.6
      vertex -2.24874 -12.7533 31.6
    endloop
  endfacet
  facet normal 0.207984 0.978132 0
    outer loop
      vertex -3.13289 -12.5653 31.6
      vertex -2.24874 -12.7533 17.5
      vertex -3.13289 -12.5653 17.5
    endloop
  endfacet
  facet normal -0.469513 -0.882926 0
    outer loop
      vertex 5.67691 11.6394 17.5
      vertex 6.475 11.215 31.6
      vertex 5.67691 11.6394 31.6
    endloop
  endfacet
  facet normal -0.469513 -0.882926 -0
    outer loop
      vertex 6.475 11.215 31.6
      vertex 5.67691 11.6394 17.5
      vertex 6.475 11.215 17.5
    endloop
  endfacet
  facet normal -0.743149 -0.669125 0
    outer loop
      vertex 9.92027 8.3241 17.5
      vertex 9.31545 8.99583 31.6
      vertex 9.31545 8.99583 17.5
    endloop
  endfacet
  facet normal -0.743149 -0.669125 0
    outer loop
      vertex 9.31545 8.99583 31.6
      vertex 9.92027 8.3241 17.5
      vertex 9.92027 8.3241 31.6
    endloop
  endfacet
  facet normal -0.898813 0.438332 0
    outer loop
      vertex 11.4342 -6.07966 17.5
      vertex 11.8304 -5.26724 31.6
      vertex 11.8304 -5.26724 17.5
    endloop
  endfacet
  facet normal -0.898813 0.438332 0
    outer loop
      vertex 11.8304 -5.26724 31.6
      vertex 11.4342 -6.07966 17.5
      vertex 11.4342 -6.07966 31.6
    endloop
  endfacet
  facet normal -0.275589 -0.961276 0
    outer loop
      vertex 3.13289 12.5653 17.5
      vertex 4.00177 12.3162 31.6
      vertex 3.13289 12.5653 31.6
    endloop
  endfacet
  facet normal -0.275589 -0.961276 -0
    outer loop
      vertex 4.00177 12.3162 31.6
      vertex 3.13289 12.5653 17.5
      vertex 4.00177 12.3162 17.5
    endloop
  endfacet
  facet normal 0.139175 0.990268 -0
    outer loop
      vertex -1.35364 -12.8791 17.5
      vertex -2.24874 -12.7533 31.6
      vertex -1.35364 -12.8791 31.6
    endloop
  endfacet
  facet normal 0.139175 0.990268 0
    outer loop
      vertex -2.24874 -12.7533 31.6
      vertex -1.35364 -12.8791 17.5
      vertex -2.24874 -12.7533 17.5
    endloop
  endfacet
  facet normal 0.787991 -0.615686 0
    outer loop
      vertex -10.4768 7.61182 31.6
      vertex -9.92027 8.3241 17.5
      vertex -9.92027 8.3241 31.6
    endloop
  endfacet
  facet normal 0.787991 -0.615686 0
    outer loop
      vertex -9.92027 8.3241 17.5
      vertex -10.4768 7.61182 31.6
      vertex -10.4768 7.61182 17.5
    endloop
  endfacet
  facet normal 0.999393 -0.0348492 0
    outer loop
      vertex -12.95 0 31.6
      vertex -12.9185 0.903346 27.1
      vertex -12.9185 0.903346 31.6
    endloop
  endfacet
  facet normal 0.999393 -0.0348492 0
    outer loop
      vertex -12.9185 0.903346 27.1
      vertex -12.95 0 31.6
      vertex -12.95 0 27.1
    endloop
  endfacet
  facet normal -0.951063 -0.308997 0
    outer loop
      vertex 12.4483 3.5695 17.5
      vertex 12.169 4.42916 31.6
      vertex 12.169 4.42916 17.5
    endloop
  endfacet
  facet normal -0.951063 -0.308997 0
    outer loop
      vertex 12.169 4.42916 31.6
      vertex 12.4483 3.5695 17.5
      vertex 12.4483 3.5695 31.6
    endloop
  endfacet
  facet normal -0.529924 -0.848045 0
    outer loop
      vertex 6.475 11.215 17.5
      vertex 7.24155 10.736 31.6
      vertex 6.475 11.215 31.6
    endloop
  endfacet
  facet normal -0.529924 -0.848045 -0
    outer loop
      vertex 7.24155 10.736 31.6
      vertex 6.475 11.215 17.5
      vertex 7.24155 10.736 17.5
    endloop
  endfacet
  facet normal 0.406693 0.913565 -0
    outer loop
      vertex -4.85116 -12.007 17.5
      vertex -5.67691 -11.6394 31.6
      vertex -4.85116 -12.007 31.6
    endloop
  endfacet
  facet normal 0.406693 0.913565 0
    outer loop
      vertex -5.67691 -11.6394 31.6
      vertex -4.85116 -12.007 17.5
      vertex -5.67691 -11.6394 17.5
    endloop
  endfacet
  facet normal 0.951063 -0.308997 0
    outer loop
      vertex -12.4483 3.5695 31.6
      vertex -12.169 4.42916 17.5
      vertex -12.169 4.42916 31.6
    endloop
  endfacet
  facet normal 0.951063 -0.308997 0
    outer loop
      vertex -12.169 4.42916 17.5
      vertex -12.4483 3.5695 31.6
      vertex -12.4483 3.5695 17.5
    endloop
  endfacet
  facet normal 0.787991 0.615686 0
    outer loop
      vertex -9.92027 -8.3241 31.6
      vertex -10.4768 -7.61182 17.5
      vertex -10.4768 -7.61182 31.6
    endloop
  endfacet
  facet normal 0.787991 0.615686 0
    outer loop
      vertex -10.4768 -7.61182 17.5
      vertex -9.92027 -8.3241 31.6
      vertex -9.92027 -8.3241 17.5
    endloop
  endfacet
  facet normal 0.927186 0.374601 0
    outer loop
      vertex -11.8304 -5.26724 31.6
      vertex -12.169 -4.42916 17.5
      vertex -12.169 -4.42916 31.6
    endloop
  endfacet
  facet normal 0.927186 0.374601 0
    outer loop
      vertex -12.169 -4.42916 17.5
      vertex -11.8304 -5.26724 31.6
      vertex -11.8304 -5.26724 17.5
    endloop
  endfacet
  facet normal 0.587786 -0.809016 0
    outer loop
      vertex -7.97282 10.2047 17.5
      vertex -7.24155 10.736 31.6
      vertex -7.97282 10.2047 31.6
    endloop
  endfacet
  facet normal 0.587786 -0.809016 0
    outer loop
      vertex -7.24155 10.736 31.6
      vertex -7.97282 10.2047 17.5
      vertex -7.24155 10.736 17.5
    endloop
  endfacet
  facet normal -0.999393 0.0348492 0
    outer loop
      vertex 12.9185 -0.903346 27.1
      vertex 12.95 0 31.6
      vertex 12.95 0 27.1
    endloop
  endfacet
  facet normal -0.999393 0.0348492 0
    outer loop
      vertex 12.95 0 31.6
      vertex 12.9185 -0.903346 27.1
      vertex 12.9185 -0.903346 31.6
    endloop
  endfacet
  facet normal 0.207984 -0.978132 0
    outer loop
      vertex -3.13289 12.5653 17.5
      vertex -2.24874 12.7533 31.6
      vertex -3.13289 12.5653 31.6
    endloop
  endfacet
  facet normal 0.207984 -0.978132 0
    outer loop
      vertex -2.24874 12.7533 31.6
      vertex -3.13289 12.5653 17.5
      vertex -2.24874 12.7533 17.5
    endloop
  endfacet
  facet normal 0.99452 0.104547 0
    outer loop
      vertex -12.824 -1.80229 31.6
      vertex -12.9185 -0.903346 27.1
      vertex -12.9185 -0.903346 31.6
    endloop
  endfacet
  facet normal 0.99452 0.104547 0
    outer loop
      vertex -12.9185 -0.903346 27.1
      vertex -12.824 -1.80229 31.6
      vertex -12.824 -1.80229 27.1
    endloop
  endfacet
  facet normal -0.642769 0.76606 0
    outer loop
      vertex 8.66524 -9.62372 17.5
      vertex 7.97282 -10.2047 31.6
      vertex 8.66524 -9.62372 31.6
    endloop
  endfacet
  facet normal -0.642769 0.76606 0
    outer loop
      vertex 7.97282 -10.2047 31.6
      vertex 8.66524 -9.62372 17.5
      vertex 7.97282 -10.2047 17.5
    endloop
  endfacet
  facet normal 0.865999 0.500046 0
    outer loop
      vertex -10.9822 -6.86245 31.6
      vertex -11.4342 -6.07966 17.5
      vertex -11.4342 -6.07966 31.6
    endloop
  endfacet
  facet normal 0.865999 0.500046 0
    outer loop
      vertex -11.4342 -6.07966 17.5
      vertex -10.9822 -6.86245 31.6
      vertex -10.9822 -6.86245 17.5
    endloop
  endfacet
  facet normal -0.0696987 0.997568 0
    outer loop
      vertex 1.35364 -12.8791 17.5
      vertex 0.451948 -12.9421 31.6
      vertex 1.35364 -12.8791 31.6
    endloop
  endfacet
  facet normal -0.0696987 0.997568 0
    outer loop
      vertex 0.451948 -12.9421 31.6
      vertex 1.35364 -12.8791 17.5
      vertex 0.451948 -12.9421 17.5
    endloop
  endfacet
  facet normal -0.529924 0.848045 0
    outer loop
      vertex 7.24155 -10.736 17.5
      vertex 6.475 -11.215 31.6
      vertex 7.24155 -10.736 31.6
    endloop
  endfacet
  facet normal -0.529924 0.848045 0
    outer loop
      vertex 6.475 -11.215 31.6
      vertex 7.24155 -10.736 17.5
      vertex 6.475 -11.215 17.5
    endloop
  endfacet
  facet normal 0.275589 -0.961276 0
    outer loop
      vertex -4.00177 12.3162 17.5
      vertex -3.13289 12.5653 31.6
      vertex -4.00177 12.3162 31.6
    endloop
  endfacet
  facet normal 0.275589 -0.961276 0
    outer loop
      vertex -3.13289 12.5653 31.6
      vertex -4.00177 12.3162 17.5
      vertex -3.13289 12.5653 17.5
    endloop
  endfacet
  facet normal -0.694652 0.719346 0
    outer loop
      vertex 9.31545 -8.99583 17.5
      vertex 8.66524 -9.62372 31.6
      vertex 9.31545 -8.99583 31.6
    endloop
  endfacet
  facet normal -0.694652 0.719346 0
    outer loop
      vertex 8.66524 -9.62372 31.6
      vertex 9.31545 -8.99583 17.5
      vertex 8.66524 -9.62372 17.5
    endloop
  endfacet
  facet normal 0.970293 -0.241934 0
    outer loop
      vertex -12.4483 3.5695 31.6
      vertex -12.5903 3 27.1
      vertex -12.4483 3.5695 17.5
    endloop
  endfacet
  facet normal 0.970288 -0.241952 2.45112e-06
    outer loop
      vertex -12.667 2.69246 31.6
      vertex -12.5903 3 27.1
      vertex -12.4483 3.5695 31.6
    endloop
  endfacet
  facet normal 0.97028 -0.241986 0
    outer loop
      vertex -12.5903 3 27.1
      vertex -12.667 2.69246 31.6
      vertex -12.667 2.69246 27.1
    endloop
  endfacet
  facet normal 0.970293 -0.241934 0
    outer loop
      vertex -12.4483 3.5695 17.5
      vertex -12.5903 3 27.1
      vertex -12.5903 3 17.5
    endloop
  endfacet
  facet normal -0.787991 -0.615686 0
    outer loop
      vertex 10.4768 7.61182 17.5
      vertex 9.92027 8.3241 31.6
      vertex 9.92027 8.3241 17.5
    endloop
  endfacet
  facet normal -0.787991 -0.615686 0
    outer loop
      vertex 9.92027 8.3241 31.6
      vertex 10.4768 7.61182 17.5
      vertex 10.4768 7.61182 31.6
    endloop
  endfacet
  facet normal -0.342066 0.939676 0
    outer loop
      vertex 4.85116 -12.007 17.5
      vertex 4.00177 -12.3162 31.6
      vertex 4.85116 -12.007 31.6
    endloop
  endfacet
  facet normal -0.342066 0.939676 0
    outer loop
      vertex 4.00177 -12.3162 31.6
      vertex 4.85116 -12.007 17.5
      vertex 4.00177 -12.3162 17.5
    endloop
  endfacet
  facet normal 0.829067 0.55915 0
    outer loop
      vertex -10.4768 -7.61182 31.6
      vertex -10.9822 -6.86245 17.5
      vertex -10.9822 -6.86245 31.6
    endloop
  endfacet
  facet normal 0.829067 0.55915 0
    outer loop
      vertex -10.9822 -6.86245 17.5
      vertex -10.4768 -7.61182 31.6
      vertex -10.4768 -7.61182 17.5
    endloop
  endfacet
  facet normal -0.0696987 -0.997568 0
    outer loop
      vertex 0.451948 12.9421 17.5
      vertex 1.35364 12.8791 31.6
      vertex 0.451948 12.9421 31.6
    endloop
  endfacet
  facet normal -0.0696987 -0.997568 -0
    outer loop
      vertex 1.35364 12.8791 31.6
      vertex 0.451948 12.9421 17.5
      vertex 1.35364 12.8791 17.5
    endloop
  endfacet
  facet normal -0.406693 -0.913565 0
    outer loop
      vertex 4.85116 12.007 17.5
      vertex 5.67691 11.6394 31.6
      vertex 4.85116 12.007 31.6
    endloop
  endfacet
  facet normal -0.406693 -0.913565 -0
    outer loop
      vertex 5.67691 11.6394 31.6
      vertex 4.85116 12.007 17.5
      vertex 5.67691 11.6394 17.5
    endloop
  endfacet
  facet normal 0.99452 -0.104547 0
    outer loop
      vertex -12.9185 0.903346 31.6
      vertex -12.824 1.80229 27.1
      vertex -12.824 1.80229 31.6
    endloop
  endfacet
  facet normal 0.99452 -0.104547 0
    outer loop
      vertex -12.824 1.80229 27.1
      vertex -12.9185 0.903346 31.6
      vertex -12.9185 0.903346 27.1
    endloop
  endfacet
  facet normal -0.207984 -0.978132 0
    outer loop
      vertex 2.24874 12.7533 17.5
      vertex 3.13289 12.5653 31.6
      vertex 2.24874 12.7533 31.6
    endloop
  endfacet
  facet normal -0.207984 -0.978132 -0
    outer loop
      vertex 3.13289 12.5653 31.6
      vertex 2.24874 12.7533 17.5
      vertex 3.13289 12.5653 17.5
    endloop
  endfacet
  facet normal 0.743149 -0.669125 0
    outer loop
      vertex -9.92027 8.3241 31.6
      vertex -9.31545 8.99583 17.5
      vertex -9.31545 8.99583 31.6
    endloop
  endfacet
  facet normal 0.743149 -0.669125 0
    outer loop
      vertex -9.31545 8.99583 17.5
      vertex -9.92027 8.3241 31.6
      vertex -9.92027 8.3241 17.5
    endloop
  endfacet
  facet normal 0 -1 0
    outer loop
      vertex -0.451948 12.9421 17.5
      vertex 0.451948 12.9421 31.6
      vertex -0.451948 12.9421 31.6
    endloop
  endfacet
  facet normal 0 -1 -0
    outer loop
      vertex 0.451948 12.9421 31.6
      vertex -0.451948 12.9421 17.5
      vertex 0.451948 12.9421 17.5
    endloop
  endfacet
  facet normal -0.139175 0.990268 0
    outer loop
      vertex 2.24874 -12.7533 17.5
      vertex 1.35364 -12.8791 31.6
      vertex 2.24874 -12.7533 31.6
    endloop
  endfacet
  facet normal -0.139175 0.990268 0
    outer loop
      vertex 1.35364 -12.8791 31.6
      vertex 2.24874 -12.7533 17.5
      vertex 1.35364 -12.8791 17.5
    endloop
  endfacet
  facet normal 0.342066 0.939676 -0
    outer loop
      vertex -4.00177 -12.3162 17.5
      vertex -4.85116 -12.007 31.6
      vertex -4.00177 -12.3162 31.6
    endloop
  endfacet
  facet normal 0.342066 0.939676 0
    outer loop
      vertex -4.85116 -12.007 31.6
      vertex -4.00177 -12.3162 17.5
      vertex -4.85116 -12.007 17.5
    endloop
  endfacet
  facet normal -0.587786 0.809016 0
    outer loop
      vertex 7.97282 -10.2047 17.5
      vertex 7.24155 -10.736 31.6
      vertex 7.97282 -10.2047 31.6
    endloop
  endfacet
  facet normal -0.587786 0.809016 0
    outer loop
      vertex 7.24155 -10.736 31.6
      vertex 7.97282 -10.2047 17.5
      vertex 7.24155 -10.736 17.5
    endloop
  endfacet
  facet normal 0.927186 -0.374601 0
    outer loop
      vertex -12.169 4.42916 31.6
      vertex -11.8304 5.26724 17.5
      vertex -11.8304 5.26724 31.6
    endloop
  endfacet
  facet normal 0.927186 -0.374601 0
    outer loop
      vertex -11.8304 5.26724 17.5
      vertex -12.169 4.42916 31.6
      vertex -12.169 4.42916 17.5
    endloop
  endfacet
  facet normal 0.9848 -0.17369 0
    outer loop
      vertex -12.824 1.80229 31.6
      vertex -12.667 2.69246 27.1
      vertex -12.667 2.69246 31.6
    endloop
  endfacet
  facet normal 0.9848 -0.17369 0
    outer loop
      vertex -12.667 2.69246 27.1
      vertex -12.824 1.80229 31.6
      vertex -12.824 1.80229 27.1
    endloop
  endfacet
  facet normal -0.207984 0.978132 0
    outer loop
      vertex 3.13289 -12.5653 17.5
      vertex 2.24874 -12.7533 31.6
      vertex 3.13289 -12.5653 31.6
    endloop
  endfacet
  facet normal -0.207984 0.978132 0
    outer loop
      vertex 2.24874 -12.7533 31.6
      vertex 3.13289 -12.5653 17.5
      vertex 2.24874 -12.7533 17.5
    endloop
  endfacet
  facet normal 0.642769 -0.76606 0
    outer loop
      vertex -8.66524 9.62372 17.5
      vertex -7.97282 10.2047 31.6
      vertex -8.66524 9.62372 31.6
    endloop
  endfacet
  facet normal 0.642769 -0.76606 0
    outer loop
      vertex -7.97282 10.2047 31.6
      vertex -8.66524 9.62372 17.5
      vertex -7.97282 10.2047 17.5
    endloop
  endfacet
  facet normal 0.898813 0.438332 0
    outer loop
      vertex -11.4342 -6.07966 31.6
      vertex -11.8304 -5.26724 17.5
      vertex -11.8304 -5.26724 31.6
    endloop
  endfacet
  facet normal 0.898813 0.438332 0
    outer loop
      vertex -11.8304 -5.26724 17.5
      vertex -11.4342 -6.07966 31.6
      vertex -11.4342 -6.07966 17.5
    endloop
  endfacet
  facet normal -0.970293 0.241934 0
    outer loop
      vertex 12.5903 -3 17.5
      vertex 12.4483 -3.5695 17.5
      vertex 12.5903 -3 27.1
    endloop
  endfacet
  facet normal -0.97028 0.241986 0
    outer loop
      vertex 12.5903 -3 27.1
      vertex 12.667 -2.69246 31.6
      vertex 12.667 -2.69246 27.1
    endloop
  endfacet
  facet normal -0.970288 0.241952 2.45112e-06
    outer loop
      vertex 12.5903 -3 27.1
      vertex 12.4483 -3.5695 31.6
      vertex 12.667 -2.69246 31.6
    endloop
  endfacet
  facet normal -0.970293 0.241934 0
    outer loop
      vertex 12.4483 -3.5695 31.6
      vertex 12.5903 -3 27.1
      vertex 12.4483 -3.5695 17.5
    endloop
  endfacet
  facet normal -0.951063 0.308997 0
    outer loop
      vertex 12.169 -4.42916 17.5
      vertex 12.4483 -3.5695 31.6
      vertex 12.4483 -3.5695 17.5
    endloop
  endfacet
  facet normal -0.951063 0.308997 0
    outer loop
      vertex 12.4483 -3.5695 31.6
      vertex 12.169 -4.42916 17.5
      vertex 12.169 -4.42916 31.6
    endloop
  endfacet
  facet normal -0.787991 0.615686 0
    outer loop
      vertex 9.92027 -8.3241 17.5
      vertex 10.4768 -7.61182 31.6
      vertex 10.4768 -7.61182 17.5
    endloop
  endfacet
  facet normal -0.787991 0.615686 0
    outer loop
      vertex 10.4768 -7.61182 31.6
      vertex 9.92027 -8.3241 17.5
      vertex 9.92027 -8.3241 31.6
    endloop
  endfacet
  facet normal -0.927186 0.374601 0
    outer loop
      vertex 11.8304 -5.26724 17.5
      vertex 12.169 -4.42916 31.6
      vertex 12.169 -4.42916 17.5
    endloop
  endfacet
  facet normal -0.927186 0.374601 0
    outer loop
      vertex 12.169 -4.42916 31.6
      vertex 11.8304 -5.26724 17.5
      vertex 11.8304 -5.26724 31.6
    endloop
  endfacet
  facet normal -0.469513 0.882926 0
    outer loop
      vertex 6.475 -11.215 17.5
      vertex 5.67691 -11.6394 31.6
      vertex 6.475 -11.215 31.6
    endloop
  endfacet
  facet normal -0.469513 0.882926 0
    outer loop
      vertex 5.67691 -11.6394 31.6
      vertex 6.475 -11.215 17.5
      vertex 5.67691 -11.6394 17.5
    endloop
  endfacet
  facet normal 0.951063 0.308997 0
    outer loop
      vertex -12.169 -4.42916 31.6
      vertex -12.4483 -3.5695 17.5
      vertex -12.4483 -3.5695 31.6
    endloop
  endfacet
  facet normal 0.951063 0.308997 0
    outer loop
      vertex -12.4483 -3.5695 17.5
      vertex -12.169 -4.42916 31.6
      vertex -12.169 -4.42916 17.5
    endloop
  endfacet
  facet normal 0.642769 0.76606 -0
    outer loop
      vertex -7.97282 -10.2047 17.5
      vertex -8.66524 -9.62372 31.6
      vertex -7.97282 -10.2047 31.6
    endloop
  endfacet
  facet normal 0.642769 0.76606 0
    outer loop
      vertex -8.66524 -9.62372 31.6
      vertex -7.97282 -10.2047 17.5
      vertex -8.66524 -9.62372 17.5
    endloop
  endfacet
  facet normal 0.743149 0.669125 0
    outer loop
      vertex -9.31545 -8.99583 31.6
      vertex -9.92027 -8.3241 17.5
      vertex -9.92027 -8.3241 31.6
    endloop
  endfacet
  facet normal 0.743149 0.669125 0
    outer loop
      vertex -9.92027 -8.3241 17.5
      vertex -9.31545 -8.99583 31.6
      vertex -9.31545 -8.99583 17.5
    endloop
  endfacet
  facet normal 0.587786 0.809016 -0
    outer loop
      vertex -7.24155 -10.736 17.5
      vertex -7.97282 -10.2047 31.6
      vertex -7.24155 -10.736 31.6
    endloop
  endfacet
  facet normal 0.587786 0.809016 0
    outer loop
      vertex -7.97282 -10.2047 31.6
      vertex -7.24155 -10.736 17.5
      vertex -7.97282 -10.2047 17.5
    endloop
  endfacet
  facet normal -0.342066 -0.939676 0
    outer loop
      vertex 4.00177 12.3162 17.5
      vertex 4.85116 12.007 31.6
      vertex 4.00177 12.3162 31.6
    endloop
  endfacet
  facet normal -0.342066 -0.939676 -0
    outer loop
      vertex 4.85116 12.007 31.6
      vertex 4.00177 12.3162 17.5
      vertex 4.85116 12.007 17.5
    endloop
  endfacet
  facet normal 0.865999 -0.500046 0
    outer loop
      vertex -11.4342 6.07966 31.6
      vertex -10.9822 6.86245 17.5
      vertex -10.9822 6.86245 31.6
    endloop
  endfacet
  facet normal 0.865999 -0.500046 0
    outer loop
      vertex -10.9822 6.86245 17.5
      vertex -11.4342 6.07966 31.6
      vertex -11.4342 6.07966 17.5
    endloop
  endfacet
  facet normal 0.469513 0.882926 -0
    outer loop
      vertex -5.67691 -11.6394 17.5
      vertex -6.475 -11.215 31.6
      vertex -5.67691 -11.6394 31.6
    endloop
  endfacet
  facet normal 0.469513 0.882926 0
    outer loop
      vertex -6.475 -11.215 31.6
      vertex -5.67691 -11.6394 17.5
      vertex -6.475 -11.215 17.5
    endloop
  endfacet
  facet normal 0.469513 -0.882926 0
    outer loop
      vertex -6.475 11.215 17.5
      vertex -5.67691 11.6394 31.6
      vertex -6.475 11.215 31.6
    endloop
  endfacet
  facet normal 0.469513 -0.882926 0
    outer loop
      vertex -5.67691 11.6394 31.6
      vertex -6.475 11.215 17.5
      vertex -5.67691 11.6394 17.5
    endloop
  endfacet
  facet normal 0.898813 -0.438332 0
    outer loop
      vertex -11.8304 5.26724 31.6
      vertex -11.4342 6.07966 17.5
      vertex -11.4342 6.07966 31.6
    endloop
  endfacet
  facet normal 0.898813 -0.438332 0
    outer loop
      vertex -11.4342 6.07966 17.5
      vertex -11.8304 5.26724 31.6
      vertex -11.8304 5.26724 17.5
    endloop
  endfacet
  facet normal 0.829067 -0.55915 0
    outer loop
      vertex -10.9822 6.86245 31.6
      vertex -10.4768 7.61182 17.5
      vertex -10.4768 7.61182 31.6
    endloop
  endfacet
  facet normal 0.829067 -0.55915 0
    outer loop
      vertex -10.4768 7.61182 17.5
      vertex -10.9822 6.86245 31.6
      vertex -10.9822 6.86245 17.5
    endloop
  endfacet
  facet normal 0 0 -1
    outer loop
      vertex -16.55 -3 19.6
      vertex -15.05 3 19.6
      vertex -15.05 -3 19.6
    endloop
  endfacet
  facet normal -0 0 -1
    outer loop
      vertex -15.05 3 19.6
      vertex -16.55 -3 19.6
      vertex -16.55 3 19.6
    endloop
  endfacet
  facet normal 0 0 -1
    outer loop
      vertex 15.05 -3 19.6
      vertex 16.55 3 19.6
      vertex 16.55 -3 19.6
    endloop
  endfacet
  facet normal -0 0 -1
    outer loop
      vertex 16.55 3 19.6
      vertex 15.05 -3 19.6
      vertex 15.05 3 19.6
    endloop
  endfacet
  facet normal 0 -1 0
    outer loop
      vertex -16.55 3 19.6
      vertex -16.55 3 17.5
      vertex -15.05 3 19.6
    endloop
  endfacet
  facet normal 0 -1 0
    outer loop
      vertex -15.05 3 19.6
      vertex -12.5903 3 27.1
      vertex -15.05 3 27.1
    endloop
  endfacet
  facet normal 0 -1 0
    outer loop
      vertex -15.05 3 19.6
      vertex -12.5903 3 17.5
      vertex -12.5903 3 27.1
    endloop
  endfacet
  facet normal 0 -1 0
    outer loop
      vertex -12.5903 3 17.5
      vertex -15.05 3 19.6
      vertex -16.55 3 17.5
    endloop
  endfacet
  facet normal 0 -1 0
    outer loop
      vertex 12.5903 3 27.1
      vertex 15.05 3 19.6
      vertex 15.05 3 27.1
    endloop
  endfacet
  facet normal 0 -1 0
    outer loop
      vertex 12.5903 3 17.5
      vertex 15.05 3 19.6
      vertex 12.5903 3 27.1
    endloop
  endfacet
  facet normal 0 -1 0
    outer loop
      vertex 16.55 3 17.5
      vertex 15.05 3 19.6
      vertex 12.5903 3 17.5
    endloop
  endfacet
  facet normal 0 -1 0
    outer loop
      vertex 15.05 3 19.6
      vertex 16.55 3 17.5
      vertex 16.55 3 19.6
    endloop
  endfacet
  facet normal 0 1 0
    outer loop
      vertex -12.5903 -3 27.1
      vertex -15.05 -3 19.6
      vertex -15.05 -3 27.1
    endloop
  endfacet
  facet normal 0 1 -0
    outer loop
      vertex -12.5903 -3 17.5
      vertex -15.05 -3 19.6
      vertex -12.5903 -3 27.1
    endloop
  endfacet
  facet normal 0 1 0
    outer loop
      vertex -16.55 -3 17.5
      vertex -15.05 -3 19.6
      vertex -12.5903 -3 17.5
    endloop
  endfacet
  facet normal 0 1 0
    outer loop
      vertex -15.05 -3 19.6
      vertex -16.55 -3 17.5
      vertex -16.55 -3 19.6
    endloop
  endfacet
  facet normal 0 1 0
    outer loop
      vertex 16.55 -3 19.6
      vertex 16.55 -3 17.5
      vertex 15.05 -3 19.6
    endloop
  endfacet
  facet normal 0 1 -0
    outer loop
      vertex 15.05 -3 19.6
      vertex 12.5903 -3 27.1
      vertex 15.05 -3 27.1
    endloop
  endfacet
  facet normal 0 1 0
    outer loop
      vertex 15.05 -3 19.6
      vertex 12.5903 -3 17.5
      vertex 12.5903 -3 27.1
    endloop
  endfacet
  facet normal 0 1 0
    outer loop
      vertex 12.5903 -3 17.5
      vertex 15.05 -3 19.6
      vertex 16.55 -3 17.5
    endloop
  endfacet
  facet normal -1 0 0
    outer loop
      vertex 15.05 -3 19.6
      vertex 15.05 3 27.1
      vertex 15.05 3 19.6
    endloop
  endfacet
  facet normal -1 -0 0
    outer loop
      vertex 15.05 3 27.1
      vertex 15.05 -3 19.6
      vertex 15.05 -3 27.1
    endloop
  endfacet
  facet normal -0 0 -1
    outer loop
      vertex -12.9185 -0.903346 27.1
      vertex -15.05 -3 27.1
      vertex -12.95 0 27.1
    endloop
  endfacet
  facet normal -0 0 -1
    outer loop
      vertex -12.824 -1.80229 27.1
      vertex -15.05 -3 27.1
      vertex -12.9185 -0.903346 27.1
    endloop
  endfacet
  facet normal -0 0 -1
    outer loop
      vertex -12.667 -2.69246 27.1
      vertex -15.05 -3 27.1
      vertex -12.824 -1.80229 27.1
    endloop
  endfacet
  facet normal 0 0 -1
    outer loop
      vertex -15.05 -3 27.1
      vertex -12.667 -2.69246 27.1
      vertex -12.5903 -3 27.1
    endloop
  endfacet
  facet normal 0 0 -1
    outer loop
      vertex -15.05 3 27.1
      vertex -12.95 0 27.1
      vertex -15.05 -3 27.1
    endloop
  endfacet
  facet normal 0 0 -1
    outer loop
      vertex -12.95 0 27.1
      vertex -15.05 3 27.1
      vertex -12.9185 0.903346 27.1
    endloop
  endfacet
  facet normal 0 0 -1
    outer loop
      vertex -12.9185 0.903346 27.1
      vertex -15.05 3 27.1
      vertex -12.824 1.80229 27.1
    endloop
  endfacet
  facet normal 0 0 -1
    outer loop
      vertex -12.824 1.80229 27.1
      vertex -15.05 3 27.1
      vertex -12.667 2.69246 27.1
    endloop
  endfacet
  facet normal 0 0 -1
    outer loop
      vertex -12.667 2.69246 27.1
      vertex -15.05 3 27.1
      vertex -12.5903 3 27.1
    endloop
  endfacet
  facet normal 0 0 -1
    outer loop
      vertex 15.05 -3 27.1
      vertex 12.95 0 27.1
      vertex 15.05 3 27.1
    endloop
  endfacet
  facet normal 0 0 -1
    outer loop
      vertex 15.05 -3 27.1
      vertex 12.9185 -0.903346 27.1
      vertex 12.95 0 27.1
    endloop
  endfacet
  facet normal 0 0 -1
    outer loop
      vertex 15.05 -3 27.1
      vertex 12.824 -1.80229 27.1
      vertex 12.9185 -0.903346 27.1
    endloop
  endfacet
  facet normal 0 0 -1
    outer loop
      vertex 15.05 -3 27.1
      vertex 12.667 -2.69246 27.1
      vertex 12.824 -1.80229 27.1
    endloop
  endfacet
  facet normal 0 -0 -1
    outer loop
      vertex 12.667 -2.69246 27.1
      vertex 15.05 -3 27.1
      vertex 12.5903 -3 27.1
    endloop
  endfacet
  facet normal 0 0 -1
    outer loop
      vertex 12.9185 0.903346 27.1
      vertex 15.05 3 27.1
      vertex 12.95 0 27.1
    endloop
  endfacet
  facet normal 0 0 -1
    outer loop
      vertex 12.824 1.80229 27.1
      vertex 15.05 3 27.1
      vertex 12.9185 0.903346 27.1
    endloop
  endfacet
  facet normal 0 0 -1
    outer loop
      vertex 12.667 2.69246 27.1
      vertex 15.05 3 27.1
      vertex 12.824 1.80229 27.1
    endloop
  endfacet
  facet normal -0 0 -1
    outer loop
      vertex 15.05 3 27.1
      vertex 12.667 2.69246 27.1
      vertex 12.5903 3 27.1
    endloop
  endfacet
  facet normal 1 -0 0
    outer loop
      vertex -15.05 -3 27.1
      vertex -15.05 3 19.6
      vertex -15.05 3 27.1
    endloop
  endfacet
  facet normal 1 0 0
    outer loop
      vertex -15.05 3 19.6
      vertex -15.05 -3 27.1
      vertex -15.05 -3 19.6
    endloop
  endfacet
endsolid OpenSCAD_Model
